<?xml version="1.0" encoding="UTF-8"?>
<svg version="1.1" xmlns="http://www.w3.org/2000/svg" width="500" height="500">
<path d="M0,0 L3,0 L3,4 L13,4 L13,0 L17,0 L17,4 L25,4 L25,8 L32,8 L32,4 L50,4 L50,0 L54,0 L54,4 L63,4 L63,0 L76,0 L76,4 L80,4 L80,8 L81,8 L81,32 L85,32 L85,33 L89,33 L89,37 L94,37 L94,79 L89,79 L89,103 L84,103 L84,113 L79,113 L79,122 L75,122 L75,127 L70,127 L70,132 L65,132 L65,136 L60,136 L60,141 L54,141 L54,146 L47,146 L47,151 L17,151 L17,146 L8,146 L8,141 L4,141 L4,136 L-1,136 L-1,132 L-5,132 L-5,127 L-9,127 L-9,122 L-14,122 L-14,113 L-18,113 L-18,103 L-22,103 L-22,79 L-26,79 L-26,75 L-27,75 L-27,74 L-30,74 L-30,37 L-26,37 L-26,32 L-22,32 L-22,8 L-18,8 L-18,4 L-12,4 L-12,2 L-11,2 L-11,1 L-10,1 L-10,2 L-9,2 L-9,4 L0,4 Z M-18,33 L-18,37 L-22,37 L-22,41 L-9,41 L-9,45 L-13,45 L-13,49 L0,49 L0,50 L-1,50 L-1,51 L-17,51 L-17,52 L-18,52 L-18,60 L-12,60 L-12,65 L-8,65 L-8,69 L14,69 L14,65 L17,65 L17,60 L18,60 L18,69 L17,69 L17,70 L14,70 L14,73 L13,73 L13,74 L9,74 L9,77 L15,77 L15,74 L18,74 L18,70 L22,70 L22,65 L27,65 L27,59 L25,59 L25,57 L24,57 L24,53 L22,53 L22,45 L18,45 L18,41 L9,41 L9,37 L-5,37 L-5,33 Z M68,33 L68,37 L58,37 L58,41 L46,41 L46,44 L42,44 L42,40 L37,40 L37,53 L38,53 L38,56 L39,56 L39,57 L38,57 L38,65 L43,65 L43,69 L46,69 L46,70 L47,70 L47,72 L50,72 L50,66 L47,66 L47,65 L46,65 L46,60 L50,60 L50,65 L54,65 L54,69 L72,69 L72,64 L76,64 L76,60 L69,60 L69,55 L80,55 L80,60 L84,60 L84,48 L77,48 L77,47 L76,47 L76,44 L73,44 L73,41 L85,41 L85,37 L81,37 L81,33 Z M23,94 L23,97 L25,97 L25,100 L28,100 L28,101 L31,101 L31,100 L32,100 L32,99 L33,99 L33,100 L35,100 L35,101 L36,101 L36,100 L41,100 L41,97 L43,97 L43,94 L38,94 L38,96 L27,96 L27,94 Z M63,101 L63,103 L58,103 L58,108 L4,108 L4,105 L-5,105 L-5,108 L-2,108 L-2,113 L3,113 L3,117 L8,117 L8,122 L12,122 L12,119 L21,119 L21,120 L13,120 L13,127 L53,127 L53,123 L51,123 L51,122 L52,122 L52,120 L43,120 L43,119 L54,119 L54,122 L59,122 L59,118 L63,118 L63,113 L69,113 L69,109 L74,109 L74,103 L69,103 L69,101 Z M22,132 L22,136 L42,136 L42,132 Z " fill="#D2B792" transform="translate(218,134)"/>
<path d="M0,0 L56,0 L56,5 L66,5 L66,11 L77,11 L77,16 L81,16 L81,21 L82,21 L82,22 L86,22 L86,26 L87,26 L87,27 L91,27 L91,37 L96,37 L96,47 L91,47 L91,42 L86,42 L86,48 L91,48 L91,57 L72,57 L72,53 L56,53 L56,59 L71,59 L71,64 L91,64 L91,79 L87,79 L87,84 L81,84 L81,89 L76,89 L76,95 L66,95 L66,100 L51,100 L51,105 L46,105 L46,110 L0,110 L0,105 L-16,105 L-16,100 L-21,100 L-21,96 L-26,96 L-26,58 L-15,58 L-15,54 L11,54 L11,48 L-26,48 L-26,42 L-21,42 L-21,37 L-15,37 L-15,32 L-5,32 L-5,27 L-21,27 L-21,32 L-26,32 L-26,27 L-27,27 L-27,28 L-28,28 L-28,31 L-29,31 L-29,33 L-30,33 L-30,22 L-26,22 L-26,16 L-21,16 L-21,11 L-16,11 L-16,6 L-15,6 L-15,11 L0,11 L0,7 L1,7 L1,4 L2,4 L2,3 L3,3 L3,2 L6,2 L6,1 L0,1 Z M9,1 L9,2 L11,2 L11,4 L10,4 L10,5 L7,5 L7,6 L51,6 L51,1 Z M51,16 L51,21 L65,21 L65,22 L66,22 L66,27 L71,27 L71,21 L67,21 L67,17 L66,17 L66,16 Z M-11,58 L-11,64 L-16,64 L-16,67 L-17,67 L-17,68 L-21,68 L-21,74 L-11,74 L-11,69 L0,69 L0,58 Z " fill="#D9BB96" transform="translate(287,357)"/>
<path d="M0,0 L62,0 L62,5 L67,5 L67,6 L77,6 L77,11 L82,11 L82,16 L87,16 L87,31 L88,31 L88,48 L51,48 L51,53 L77,53 L77,58 L87,58 L87,59 L88,59 L88,95 L82,95 L82,100 L72,100 L72,105 L61,105 L61,110 L16,110 L16,100 L-5,100 L-5,95 L-10,95 L-10,90 L-15,90 L-15,85 L-20,85 L-20,79 L-25,79 L-25,74 L-30,74 L-30,69 L-25,69 L-25,63 L-5,63 L-5,58 L-30,58 L-30,53 L-25,53 L-25,48 L-30,48 L-30,37 L-25,37 L-25,27 L-20,27 L-20,21 L-14,21 L-14,16 L-9,16 L-9,11 L-5,11 L-5,5 L0,5 Z M11,1 L11,5 L12,5 L12,6 L47,6 L47,5 L48,5 L48,4 L49,4 L49,1 Z M5,11 L5,15 L-3,15 L-3,14 L-5,14 L-5,21 L-10,21 L-10,27 L1,27 L1,22 L6,22 L6,21 L7,21 L7,20 L8,20 L8,19 L9,19 L9,17 L11,17 L11,16 L12,16 L12,11 Z M67,26 L67,32 L76,32 L76,33 L77,33 L77,43 L87,43 L87,31 L77,31 L77,26 Z M-5,53 L-5,58 L11,58 L11,53 Z M62,58 L62,59 L61,59 L61,68 L62,68 L62,69 L70,69 L70,71 L71,71 L71,74 L87,74 L87,68 L86,68 L86,67 L84,67 L84,66 L83,66 L83,63 L70,63 L70,62 L68,62 L68,58 Z " fill="#D9BB95" transform="translate(158,357)"/>
<path d="M0,0 L6,0 L6,5 L16,5 L16,6 L6,6 L6,11 L16,11 L16,16 L21,16 L21,21 L26,21 L26,20 L27,20 L27,21 L31,21 L31,42 L36,42 L36,79 L31,79 L31,89 L26,89 L26,58 L25,58 L25,57 L21,57 L21,42 L16,42 L16,37 L11,37 L11,31 L6,31 L6,26 L0,26 L0,21 L-4,21 L-4,16 L-8,16 L-8,15 L-9,15 L-9,14 L-10,14 L-10,11 L-20,11 L-20,16 L-11,16 L-11,17 L-10,17 L-10,21 L-5,21 L-5,27 L0,27 L0,31 L1,31 L1,32 L5,32 L5,37 L10,37 L10,42 L15,42 L15,58 L21,58 L21,95 L5,95 L5,90 L0,90 L0,84 L-20,84 L-20,79 L-25,79 L-25,73 L-30,73 L-30,63 L-35,63 L-35,53 L-37,53 L-37,52 L-40,52 L-40,47 L-45,47 L-45,37 L-51,37 L-51,32 L-56,32 L-56,27 L-61,27 L-61,21 L-66,21 L-66,11 L-55,11 L-55,6 L-26,6 L-26,5 L-25,5 L-25,1 L-5,1 L-5,5 L5,5 L5,1 L0,1 Z M-45,16 L-45,21 L-41,21 L-41,27 L-33,27 L-33,28 L-32,28 L-32,31 L-31,31 L-31,32 L-21,32 L-21,37 L-10,37 L-10,41 L-5,41 L-5,32 L-10,32 L-10,26 L-15,26 L-15,21 L-25,21 L-25,16 Z " fill="#D8BA95" transform="translate(419,331)"/>
<path d="M0,0 L1,0 L1,6 L-9,6 L-9,10 L5,10 L5,6 L16,6 L16,1 L37,1 L37,6 L62,6 L62,11 L67,11 L67,16 L72,16 L72,21 L67,21 L67,26 L62,26 L62,37 L57,37 L57,41 L52,41 L52,51 L51,51 L51,52 L47,52 L47,63 L42,63 L42,74 L37,74 L37,79 L26,79 L26,84 L10,84 L10,90 L1,90 L1,94 L-14,94 L-14,58 L-10,58 L-10,47 L-15,47 L-15,56 L-16,56 L-16,57 L-20,57 L-20,89 L-25,89 L-25,84 L-28,84 L-28,83 L-29,83 L-29,84 L-30,84 L-30,74 L-35,74 L-35,42 L-30,42 L-30,37 L-29,37 L-29,32 L-25,32 L-25,26 L-20,26 L-20,21 L-15,21 L-15,16 L-10,16 L-10,11 L-20,11 L-20,10 L-10,10 L-10,5 L0,5 Z M16,11 L16,15 L15,15 L15,16 L10,16 L10,21 L6,21 L6,22 L5,22 L5,26 L1,26 L1,29 L0,29 L0,31 L-5,31 L-5,37 L-10,37 L-10,46 L-9,46 L-9,47 L-4,47 L-4,37 L1,37 L1,36 L5,36 L5,41 L6,41 L6,42 L21,42 L21,37 L32,37 L32,32 L43,32 L43,27 L53,27 L53,21 L57,21 L57,15 L29,15 L29,13 L28,13 L28,12 L26,12 L26,16 L25,16 L25,11 Z " fill="#D8BB94" transform="translate(81,331)"/>
<path d="M0,0 L9,0 L9,1 L18,1 L18,6 L17,6 L17,9 L16,9 L16,10 L15,10 L15,14 L14,14 L14,15 L9,15 L9,26 L5,26 L5,40 L-4,40 L-4,44 L-8,44 L-8,50 L-12,50 L-12,53 L-13,53 L-13,54 L-16,54 L-16,55 L-17,55 L-17,58 L-21,58 L-21,62 L-25,62 L-25,67 L-30,67 L-30,71 L-33,71 L-33,74 L-34,74 L-34,86 L-40,86 L-40,66 L-41,66 L-41,65 L-42,65 L-42,63 L-41,63 L-41,55 L-37,55 L-37,40 L-32,40 L-32,32 L-33,32 L-33,31 L-34,31 L-34,30 L-36,30 L-36,31 L-37,31 L-37,33 L-38,33 L-38,34 L-39,34 L-39,35 L-40,35 L-40,40 L-45,40 L-45,55 L-49,55 L-49,77 L-54,77 L-54,72 L-58,72 L-58,26 L-54,26 L-54,21 L-49,21 L-49,16 L-45,16 L-45,12 L-49,12 L-49,11 L-45,11 L-45,6 L-38,6 L-38,1 L-37,1 L-37,5 L-36,5 L-36,6 L-35,6 L-35,7 L-29,7 L-29,5 L-30,5 L-30,2 L-18,2 L-18,4 L-19,4 L-19,6 L-20,6 L-20,10 L-21,10 L-21,11 L-24,11 L-24,12 L-25,12 L-25,14 L-26,14 L-26,21 L-16,21 L-16,16 L-5,16 L-5,11 L-9,11 L-9,10 L-5,10 L-5,6 L-4,6 L-4,11 L4,11 L4,6 L9,6 L9,2 L8,2 L8,1 L1,1 L1,5 L-1,5 L-1,1 L0,1 Z " fill="#E6DB8E" transform="translate(280,33)"/>
<path d="M0,0 L9,0 L9,4 L4,4 L4,10 L1,10 L1,13 L2,13 L2,15 L4,15 L4,18 L3,18 L3,17 L1,17 L1,18 L-2,18 L-2,19 L-4,19 L-4,23 L-8,23 L-8,29 L-4,29 L-4,24 L0,24 L0,29 L15,29 L15,30 L21,30 L21,32 L22,32 L22,36 L18,36 L18,45 L31,45 L31,41 L38,41 L38,45 L35,45 L35,50 L31,50 L31,56 L28,56 L28,60 L26,60 L26,65 L22,65 L22,70 L41,70 L41,74 L38,74 L38,79 L32,79 L32,84 L23,84 L23,85 L22,85 L22,88 L9,88 L9,84 L18,84 L18,74 L14,74 L14,65 L18,65 L18,61 L9,61 L9,65 L1,65 L1,60 L5,60 L5,55 L-1,55 L-1,58 L0,58 L0,60 L-9,60 L-9,63 L-10,63 L-10,64 L-16,64 L-16,61 L-12,61 L-12,56 L-8,56 L-8,51 L-17,51 L-17,55 L-19,55 L-19,56 L-21,56 L-21,60 L-26,60 L-26,61 L-27,61 L-27,64 L-30,64 L-30,65 L-31,65 L-31,70 L-39,70 L-39,65 L-35,65 L-35,60 L-30,60 L-30,56 L-26,56 L-26,55 L-25,55 L-25,51 L-21,51 L-21,46 L-26,46 L-26,50 L-27,50 L-27,51 L-31,51 L-31,55 L-39,55 L-39,51 L-36,51 L-36,50 L-35,50 L-35,49 L-34,49 L-34,47 L-33,47 L-33,46 L-30,46 L-30,41 L-35,41 L-35,46 L-39,46 L-39,50 L-45,50 L-45,52 L-49,52 L-49,53 L-50,53 L-50,54 L-51,54 L-51,49 L-50,49 L-50,47 L-48,47 L-48,46 L-47,46 L-47,42 L-44,42 L-44,41 L-43,41 L-43,37 L-39,37 L-39,33 L-35,33 L-35,24 L-31,24 L-31,19 L-26,19 L-26,14 L-22,14 L-22,10 L-13,10 L-13,5 L0,5 Z M-18,29 L-18,41 L-21,41 L-21,46 L-17,46 L-17,42 L-13,42 L-13,29 Z " fill="#E8DA8E" transform="translate(311,54)"/>
<path d="M0,0 L36,0 L36,6 L40,6 L40,11 L51,11 L51,16 L56,16 L56,26 L61,26 L61,42 L66,42 L66,59 L46,59 L46,56 L41,56 L41,47 L36,47 L36,59 L5,59 L5,47 L0,47 Z M21,1 L21,25 L22,25 L22,26 L25,26 L25,42 L30,42 L30,46 L31,46 L31,47 L35,47 L35,46 L36,46 L36,35 L31,35 L31,26 L26,26 L26,25 L25,25 L25,1 Z " fill="#D7BA95" transform="translate(394,441)"/>
<path d="M0,0 L31,0 L31,6 L36,6 L36,46 L31,46 L31,59 L6,59 L6,57 L11,57 L11,42 L16,42 L16,31 L11,31 L11,41 L6,41 L6,47 L5,47 L5,46 L0,46 L0,51 L-4,51 L-4,50 L-3,50 L-3,49 L-5,49 L-5,59 L-36,59 L-36,57 L-30,57 L-30,42 L-25,42 L-25,27 L-24,27 L-24,26 L-20,26 L-20,16 L-14,16 L-14,11 L-9,11 L-9,6 L0,6 Z M11,6 L11,25 L15,25 L15,6 Z " fill="#DABD97" transform="translate(76,441)"/>
<path d="M0,0 L4,0 L4,65 L1,65 L1,62 L0,62 L0,61 L-5,61 L-5,67 L-6,67 L-6,68 L-8,68 L-8,66 L-13,66 L-13,70 L-18,70 L-18,76 L-22,76 L-22,80 L-21,80 L-21,81 L-19,81 L-19,84 L-25,84 L-25,81 L-26,81 L-26,80 L-30,80 L-30,76 L-31,76 L-31,75 L-34,75 L-34,66 L-35,66 L-35,65 L-38,65 L-38,61 L-39,61 L-39,60 L-43,60 L-43,34 L-42,34 L-42,32 L-41,32 L-41,31 L-39,31 L-39,45 L-30,45 L-30,19 L-26,19 L-26,15 L-22,15 L-22,10 L-18,10 L-18,34 L-13,34 L-13,15 L-9,15 L-9,10 L-5,10 L-5,5 L0,5 Z M-22,47 L-22,61 L-19,61 L-19,64 L-18,64 L-18,66 L-13,66 L-13,56 L-18,56 L-18,47 Z " fill="#E6DA8D" transform="translate(213,44)"/>
<path d="M0,0 L5,0 L5,21 L9,21 L9,36 L10,36 L10,37 L21,37 L21,5 L25,5 L25,41 L41,41 L41,37 L50,37 L50,31 L66,31 L66,26 L77,26 L77,31 L71,31 L71,46 L40,46 L40,52 L36,52 L36,57 L25,57 L25,62 L10,62 L10,52 L5,52 L5,37 L0,37 Z " fill="#B88869" transform="translate(41,384)"/>
<path d="M0,0 L2,0 L2,1 L5,1 L5,5 L10,5 L10,1 L14,1 L14,10 L18,10 L18,18 L19,18 L19,19 L27,19 L27,23 L37,23 L37,19 L32,19 L32,18 L39,18 L39,20 L40,20 L40,42 L36,42 L36,51 L33,51 L33,64 L28,64 L28,63 L27,63 L27,62 L22,62 L22,61 L19,61 L19,62 L18,62 L18,61 L17,61 L17,62 L5,62 L5,61 L4,61 L4,58 L5,58 L5,56 L6,56 L6,55 L7,55 L7,53 L11,53 L11,52 L12,52 L12,51 L10,51 L10,47 L14,47 L14,45 L10,45 L10,44 L9,44 L9,42 L5,42 L5,38 L6,38 L6,37 L5,37 L5,36 L4,36 L4,33 L5,33 L5,32 L6,32 L6,31 L7,31 L7,30 L14,30 L14,32 L18,32 L18,37 L28,37 L28,33 L27,33 L27,32 L24,32 L24,28 L22,28 L22,27 L20,27 L20,26 L19,26 L19,23 L17,23 L17,21 L15,21 L15,18 L1,18 L1,15 L4,15 L4,14 L6,14 L6,10 L2,10 L2,13 L0,13 L0,12 L-1,12 L-1,13 L-3,13 L-3,19 L1,19 L1,23 L5,23 L5,29 L-1,29 L-1,26 L0,26 L0,25 L-2,25 L-2,23 L-3,23 L-3,22 L-7,22 L-7,17 L-9,17 L-9,16 L-10,16 L-10,14 L-11,14 L-11,10 L1,10 L1,9 L2,9 L2,4 L0,4 Z " fill="#DCBB5D" transform="translate(151,119)"/>
<path d="M0,0 L4,0 L4,4 L9,4 L9,9 L10,9 L10,15 L15,15 L15,19 L20,19 L20,35 L21,35 L21,39 L25,39 L25,51 L26,51 L26,55 L27,55 L27,56 L30,56 L30,76 L35,76 L35,86 L25,86 L25,81 L15,81 L15,60 L9,60 L9,45 L5,45 L5,44 L4,44 L4,19 L0,19 Z " fill="#D7B590" transform="translate(200,271)"/>
<path d="M0,0 L4,0 L4,4 L9,4 L9,9 L10,9 L10,10 L14,10 L14,15 L25,15 L25,10 L30,10 L30,5 L36,5 L36,0 L40,0 L40,15 L36,15 L36,29 L34,29 L34,30 L31,30 L31,41 L30,41 L30,46 L26,46 L26,47 L25,47 L25,56 L15,56 L15,51 L9,51 L9,31 L4,31 L4,15 L0,15 Z " fill="#D9BA93" transform="translate(231,306)"/>
<path d="M0,0 L2,0 L2,5 L18,5 L18,10 L64,10 L64,5 L69,5 L69,10 L71,10 L71,11 L74,11 L74,15 L84,15 L84,20 L74,20 L74,25 L18,25 L18,21 L17,21 L17,20 L8,20 L8,15 L2,15 L2,10 L-3,10 L-3,4 L0,4 Z " fill="#B58668" transform="translate(269,457)"/>
<path d="M0,0 L4,0 L4,5 L10,5 L10,10 L30,10 L30,16 L35,16 L35,21 L51,21 L51,19 L52,19 L52,18 L56,18 L56,16 L61,16 L61,5 L67,5 L67,3 L68,3 L68,2 L70,2 L70,20 L66,20 L66,31 L61,31 L61,36 L56,36 L56,39 L55,39 L55,41 L46,41 L46,46 L56,46 L56,47 L45,47 L45,42 L41,42 L41,31 L31,31 L31,30 L32,30 L32,28 L33,28 L33,27 L32,27 L32,26 L34,26 L34,25 L31,25 L31,24 L32,24 L32,23 L30,23 L30,21 L29,21 L29,24 L11,24 L11,23 L10,23 L10,24 L6,24 L6,21 L5,21 L5,10 L0,10 Z " fill="#B08061" transform="translate(389,405)"/>
<path d="M0,0 L1,0 L1,1 L2,1 L2,2 L1,2 L1,4 L0,4 L0,6 L2,6 L2,10 L-1,10 L-1,24 L-6,24 L-6,31 L-4,31 L-4,34 L-6,34 L-6,38 L-12,38 L-12,34 L-20,34 L-20,30 L-25,30 L-25,34 L-34,34 L-34,30 L-39,30 L-39,34 L-42,34 L-42,30 L-43,30 L-43,28 L-56,28 L-56,29 L-57,29 L-57,37 L-64,37 L-64,39 L-65,39 L-65,40 L-66,40 L-66,38 L-73,38 L-73,29 L-74,29 L-74,26 L-72,26 L-72,28 L-69,28 L-69,30 L-60,30 L-60,25 L-65,25 L-65,21 L-61,21 L-61,20 L-60,20 L-60,16 L-56,16 L-56,21 L-51,21 L-51,16 L-48,16 L-48,21 L-43,21 L-43,25 L-38,25 L-38,16 L-34,16 L-34,17 L-33,17 L-33,16 L-32,16 L-32,15 L-31,15 L-31,11 L-24,11 L-24,9 L-23,9 L-23,3 L-22,3 L-22,2 L-21,2 L-21,1 L-17,1 L-17,21 L-9,21 L-9,20 L-8,20 L-8,6 L-5,6 L-5,2 L-1,2 L-1,1 L0,1 Z " fill="#DBBA5C" transform="translate(256,99)"/>
<path d="M0,0 L2,0 L2,6 L1,6 L1,7 L-6,7 L-6,12 L7,12 L7,16 L2,16 L2,19 L-6,19 L-6,16 L-10,16 L-10,20 L-6,20 L-6,25 L3,25 L3,28 L16,28 L16,20 L26,20 L26,22 L24,22 L24,24 L26,24 L26,30 L23,30 L23,31 L22,31 L22,35 L16,35 L16,41 L17,41 L17,42 L18,42 L18,44 L16,44 L16,45 L15,45 L15,46 L14,46 L14,51 L7,51 L7,52 L-4,52 L-4,51 L-6,51 L-6,50 L-8,50 L-8,43 L-7,43 L-7,39 L-8,39 L-8,36 L-9,36 L-9,35 L-17,35 L-17,13 L-16,13 L-16,8 L-17,8 L-17,5 L-16,5 L-16,4 L-1,4 L-1,1 L0,1 Z " fill="#DDBC59" transform="translate(326,130)"/>
<path d="M0,0 L5,0 L5,11 L51,11 L51,10 L52,10 L52,9 L55,9 L55,10 L56,10 L56,9 L57,9 L57,15 L71,15 L71,21 L61,21 L61,20 L66,20 L66,16 L57,16 L57,21 L45,21 L45,25 L-5,25 L-5,21 L-6,21 L-6,20 L-16,20 L-16,12 L-15,12 L-15,11 L-16,11 L-16,5 L-15,5 L-15,9 L-11,9 L-11,5 L-5,5 L-5,11 L-10,11 L-10,15 L0,15 L0,10 L4,10 L4,5 L0,5 Z " fill="#B28264" transform="translate(169,457)"/>
<path d="M0,0 L1,0 L1,26 L-1,26 L-1,27 L-3,27 L-3,31 L-4,31 L-4,37 L-8,37 L-8,36 L-9,36 L-9,68 L-20,68 L-20,73 L-29,73 L-29,63 L-24,63 L-24,43 L-20,43 L-20,39 L-19,39 L-19,32 L-14,32 L-14,16 L-13,16 L-13,12 L-9,12 L-9,11 L-8,11 L-8,1 L0,1 Z " fill="#DABA94" transform="translate(296,284)"/>
<path d="M0,0 L18,0 L18,4 L23,4 L23,15 L39,15 L39,21 L41,21 L41,22 L40,22 L40,23 L37,23 L37,22 L36,22 L36,24 L34,24 L34,25 L12,25 L12,30 L-2,30 L-2,25 L-22,25 L-22,24 L-8,24 L-8,23 L-5,23 L-5,21 L-3,21 L-3,20 L-8,20 L-8,12 L-7,12 L-7,10 L-6,10 L-6,9 L-8,9 L-8,4 L-2,4 L-2,3 L-1,3 L-1,2 L0,2 Z " fill="#D6B693" transform="translate(248,468)"/>
<path d="M0,0 L5,0 L5,10 L0,10 L0,15 L5,15 L5,20 L10,20 L10,26 L15,26 L15,31 L20,31 L20,36 L25,36 L25,52 L26,52 L26,53 L25,53 L25,56 L20,56 L20,51 L10,51 L10,46 L5,46 L5,36 L0,36 L0,30 L-5,30 L-5,20 L-10,20 L-10,5 L0,5 Z " fill="#B6876A" transform="translate(128,416)"/>
<path d="M0,0 L5,0 L5,5 L15,5 L15,15 L20,15 L20,25 L15,25 L15,30 L10,30 L10,31 L-10,31 L-10,25 L-15,25 L-15,20 L-20,20 L-20,16 L-26,16 L-26,10 L-30,10 L-30,7 L-29,7 L-29,9 L-25,9 L-25,15 L-19,15 L-19,13 L-16,13 L-16,12 L-13,12 L-13,13 L-12,13 L-12,14 L-11,14 L-11,15 L-5,15 L-5,21 L6,21 L6,15 L-4,15 L-4,14 L-5,14 L-5,9 L-6,9 L-6,6 L-2,6 L-2,5 L-1,5 L-1,2 L-2,2 L-2,1 L0,1 Z " fill="#D8B993" transform="translate(343,306)"/>
<path d="M0,0 L6,0 L6,1 L7,1 L7,0 L8,0 L8,3 L9,3 L9,9 L4,9 L4,29 L-1,29 L-1,14 L-6,14 L-6,23 L-47,23 L-47,18 L-52,18 L-52,14 L-58,14 L-58,12 L-57,12 L-57,13 L-53,13 L-53,12 L-54,12 L-54,11 L-52,11 L-52,9 L-43,9 L-43,14 L-13,14 L-13,9 L-6,9 L-6,4 L0,4 Z " fill="#1B1612" transform="translate(278,271)"/>
<path d="M0,0 L26,0 L26,5 L22,5 L22,11 L12,11 L12,16 L1,16 L1,21 L-10,21 L-10,26 L-25,26 L-25,21 L-21,21 L-21,16 L-20,16 L-20,15 L-16,15 L-16,13 L-15,13 L-15,11 L-10,11 L-10,5 L0,5 Z " fill="#E6DCCE" transform="translate(112,347)"/>
<path d="M0,0 L5,0 L5,15 L9,15 L9,26 L4,26 L4,31 L-2,31 L-2,33 L-3,33 L-3,34 L-4,34 L-4,35 L-7,35 L-7,36 L-8,36 L-8,37 L-9,37 L-9,36 L-11,36 L-11,38 L-12,38 L-12,37 L-14,37 L-14,36 L-16,36 L-16,21 L-21,21 L-21,31 L-22,31 L-22,20 L-16,20 L-16,10 L-12,10 L-12,5 L-11,5 L-11,10 L-6,10 L-6,5 L0,5 Z " fill="#C8AE8C" transform="translate(36,426)"/>
<path d="M0,0 L5,0 L5,5 L10,5 L10,16 L15,16 L15,20 L21,20 L21,16 L22,16 L22,20 L23,20 L23,21 L21,21 L21,36 L25,36 L25,48 L22,48 L22,47 L24,47 L24,46 L21,46 L21,45 L20,45 L20,44 L18,44 L18,43 L17,43 L17,41 L16,41 L16,40 L15,40 L15,38 L14,38 L14,35 L12,35 L12,37 L11,37 L11,40 L10,40 L10,36 L6,36 L6,31 L5,31 L5,30 L0,30 L0,25 L-5,25 L-5,15 L0,15 Z " fill="#D6BA98" transform="translate(460,426)"/>
<path d="M0,0 L5,0 L5,10 L0,10 L0,15 L-4,15 L-4,16 L-5,16 L-5,20 L-6,20 L-6,21 L-11,21 L-11,26 L-16,26 L-16,30 L-27,30 L-27,26 L-30,26 L-30,25 L-31,25 L-31,21 L-32,21 L-32,20 L-37,20 L-37,16 L-42,16 L-42,9 L0,9 Z " fill="#99694D" transform="translate(272,285)"/>
<path d="M0,0 L5,0 L5,15 L6,15 L6,16 L5,16 L5,31 L0,31 L0,46 L-1,46 L-1,31 L-5,31 L-5,41 L-10,41 L-10,48 L-21,48 L-21,46 L-16,46 L-16,41 L-11,41 L-11,36 L-16,36 L-16,20 L-11,20 L-11,11 L-10,11 L-10,10 L-5,10 L-5,5 L0,5 Z " fill="#D4B18C" transform="translate(46,452)"/>
<path d="M0,0 L3,0 L3,2 L5,2 L5,18 L0,18 L0,23 L-5,23 L-5,28 L-11,28 L-11,33 L-16,33 L-16,38 L-26,38 L-26,33 L-24,33 L-24,31 L-25,31 L-25,23 L-26,23 L-26,18 L-16,18 L-16,12 L-11,12 L-11,7 L-5,7 L-5,2 L0,2 Z " fill="#B48667" transform="translate(379,434)"/>
<path d="M0,0 L11,0 L11,5 L13,5 L13,6 L11,6 L11,9 L13,9 L13,13 L12,13 L12,15 L11,15 L11,47 L26,47 L26,52 L11,52 L11,61 L8,61 L8,62 L7,62 L7,63 L6,63 L6,52 L-10,52 L-10,47 L6,47 L6,19 L4,19 L4,17 L3,17 L3,18 L2,18 L2,19 L1,19 L1,10 L0,10 L0,8 L2,8 L2,6 L3,6 L3,5 L0,5 Z " fill="#B18162" transform="translate(245,363)"/>
<path d="M0,0 L4,0 L4,25 L-1,25 L-1,51 L10,51 L10,41 L15,41 L15,46 L16,46 L16,47 L15,47 L15,48 L16,48 L16,49 L21,49 L21,51 L15,51 L15,56 L-21,56 L-21,51 L-6,51 L-6,20 L-5,20 L-5,18 L-4,18 L-4,16 L-3,16 L-3,15 L-1,15 L-1,14 L0,14 Z " fill="#99684A" transform="translate(298,301)"/>
<path d="M0,0 L4,0 L4,5 L19,5 L19,9 L20,9 L20,10 L66,10 L66,15 L30,15 L30,20 L35,20 L35,22 L9,22 L9,20 L15,20 L15,15 L9,15 L9,9 L0,9 L0,6 L1,6 L1,2 L2,2 L2,1 L0,1 Z " fill="#B48569" transform="translate(144,478)"/>
<path d="M0,0 L11,0 L11,31 L15,31 L15,33 L5,33 L5,30 L1,30 L1,15 L-5,15 L-5,20 L-11,20 L-11,21 L-15,21 L-15,16 L-25,16 L-25,15 L-15,15 L-15,10 L-5,10 L-5,5 L0,5 Z " fill="#8D6046" transform="translate(373,467)"/>
<path d="M0,0 L9,0 L9,4 L15,4 L15,10 L20,10 L20,15 L35,15 L35,21 L33,21 L33,22 L34,22 L34,25 L33,25 L33,26 L29,26 L29,29 L30,29 L30,30 L28,30 L28,29 L26,29 L26,25 L25,25 L25,24 L20,24 L20,20 L15,20 L15,14 L5,14 L5,20 L10,20 L10,29 L6,29 L6,27 L5,27 L5,25 L0,25 Z " fill="#D9BD9A" transform="translate(308,286)"/>
<path d="M0,0 L20,0 L20,5 L30,5 L30,10 L35,10 L35,16 L40,16 L40,25 L35,25 L35,21 L24,21 L24,16 L14,16 L14,15 L13,15 L13,12 L12,12 L12,11 L4,11 L4,5 L0,5 Z " fill="#E6DCCD" transform="translate(374,347)"/>
<path d="M0,0 L15,0 L15,5 L35,5 L35,0 L40,0 L40,10 L51,10 L51,3 L52,3 L52,2 L53,2 L53,4 L54,4 L54,3 L55,3 L55,10 L57,10 L57,11 L70,11 L70,15 L35,15 L35,10 L5,10 L5,5 L0,5 Z " fill="#986648" transform="translate(154,342)"/>
<path d="M0,0 L6,0 L6,14 L12,14 L12,15 L16,15 L16,19 L12,19 L12,24 L7,24 L7,28 L2,28 L2,74 L1,74 L1,75 L-1,75 L-1,18 L0,18 L0,16 L3,16 L3,15 L4,15 L4,13 L3,13 L3,9 L-3,9 L-3,11 L-4,11 L-4,10 L-5,10 L-5,13 L-7,13 L-7,14 L-10,14 L-10,15 L-14,15 L-14,18 L-15,18 L-15,19 L-23,19 L-23,18 L-16,18 L-16,14 L-15,14 L-15,13 L-11,13 L-11,9 L-6,9 L-6,7 L-5,7 L-5,5 L-1,5 L-1,1 L0,1 Z " fill="#DCBB60" transform="translate(219,30)"/>
<path d="M0,0 L4,0 L4,5 L5,5 L5,10 L10,10 L10,16 L15,16 L15,21 L20,21 L20,26 L25,26 L25,36 L20,36 L20,31 L16,31 L16,26 L5,26 L5,20 L-5,20 L-5,15 L-35,15 L-35,14 L-34,14 L-34,13 L-33,13 L-33,14 L-30,14 L-30,13 L-29,13 L-29,14 L-28,14 L-28,13 L-23,13 L-23,14 L-22,14 L-22,13 L-21,13 L-21,14 L-20,14 L-20,13 L-19,13 L-19,14 L-18,14 L-18,13 L-17,13 L-17,14 L-13,14 L-13,13 L-12,13 L-12,12 L-8,12 L-8,11 L-5,11 L-5,5 L0,5 Z " fill="#B08061" transform="translate(348,342)"/>
<path d="M0,0 L4,0 L4,16 L10,16 L10,26 L15,26 L15,32 L19,32 L19,41 L18,41 L18,40 L17,40 L17,45 L15,45 L15,44 L13,44 L13,43 L15,43 L15,39 L16,39 L16,37 L15,37 L15,38 L14,38 L14,39 L13,39 L13,38 L12,38 L12,40 L11,40 L11,38 L10,38 L10,37 L5,37 L5,21 L0,21 L0,16 L-26,16 L-26,11 L0,11 Z " fill="#241A12" transform="translate(113,420)"/>
<path d="M0,0 L4,0 L4,4 L2,4 L2,5 L1,5 L1,9 L6,9 L6,5 L9,5 L9,0 L17,0 L17,4 L13,4 L13,9 L9,9 L9,17 L13,17 L13,16 L17,16 L17,15 L18,15 L18,17 L21,17 L21,18 L31,18 L31,16 L32,16 L32,18 L33,18 L33,17 L34,17 L34,16 L35,16 L35,18 L34,18 L34,19 L33,19 L33,20 L32,20 L32,21 L34,21 L34,22 L38,22 L38,23 L31,23 L31,19 L17,19 L17,23 L14,23 L14,19 L5,19 L5,23 L-11,23 L-11,20 L-13,20 L-13,13 L-9,13 L-9,14 L-12,14 L-12,19 L-8,19 L-8,14 L-4,14 L-4,4 L0,4 Z " fill="#DCBD60" transform="translate(263,110)"/>
<path d="M0,0 L4,0 L4,9 L11,9 L11,10 L12,10 L12,13 L13,13 L13,14 L17,14 L17,24 L19,24 L19,25 L21,25 L21,32 L22,32 L22,33 L24,33 L24,35 L23,35 L23,36 L24,36 L24,38 L22,38 L22,39 L21,39 L21,40 L17,40 L17,39 L16,39 L16,38 L15,38 L15,37 L14,37 L14,35 L13,35 L13,32 L9,32 L9,24 L4,24 L4,14 L0,14 Z " fill="#E8DB91" transform="translate(157,96)"/>
<path d="M0,0 L5,0 L5,5 L15,5 L15,10 L10,10 L10,16 L15,16 L15,20 L10,20 L10,26 L5,26 L5,33 L-5,33 L-5,21 L0,21 Z " fill="#936449" transform="translate(128,467)"/>
<path d="M0,0 L1,0 L1,10 L0,10 L0,6 L-9,6 L-9,31 L-4,31 L-4,36 L0,36 L0,42 L6,42 L6,46 L11,46 L11,51 L16,51 L16,57 L11,57 L11,62 L12,62 L12,63 L10,63 L10,64 L8,64 L8,62 L10,62 L10,57 L6,57 L6,51 L1,51 L1,46 L-4,46 L-4,41 L-9,41 L-9,36 L-14,36 L-14,21 L-10,21 L-10,1 L-5,1 L-5,5 L0,5 Z " fill="#BE9374" transform="translate(317,280)"/>
<path d="M0,0 L4,0 L4,1 L5,1 L5,6 L25,6 L25,7 L24,7 L24,9 L32,9 L32,10 L5,10 L5,15 L0,15 L0,21 L-5,21 L-5,25 L-10,25 L-10,30 L-14,30 L-14,29 L-15,29 L-15,21 L-10,21 L-10,10 L-5,10 L-5,5 L0,5 Z " fill="#BF9275" transform="translate(153,347)"/>
<path d="M0,0 L10,0 L10,10 L25,10 L25,5 L35,5 L35,11 L26,11 L26,16 L21,16 L21,21 L15,21 L15,31 L10,31 L10,16 L5,16 L5,1 L0,1 Z " fill="#A87859" transform="translate(41,436)"/>
<path d="M0,0 L1,0 L1,5 L-4,5 L-4,15 L-9,15 L-9,31 L-14,31 L-14,36 L-19,36 L-19,5 L-12,5 L-12,6 L-10,6 L-10,7 L-9,7 L-9,5 L-7,5 L-7,6 L-6,6 L-6,5 L-5,5 L-5,4 L-2,4 L-2,3 L-1,3 L-1,2 L0,2 Z " fill="#D9BC96" transform="translate(34,457)"/>
<path d="M0,0 L1,0 L1,9 L2,9 L2,8 L3,8 L3,7 L4,7 L4,9 L6,9 L6,37 L-36,37 L-36,32 L1,32 L1,15 L0,15 Z " fill="#BE9070" transform="translate(245,373)"/>
<path d="M0,0 L1,0 L1,5 L-4,5 L-4,10 L-14,10 L-14,15 L-24,15 L-24,20 L-64,20 L-64,17 L-79,17 L-79,16 L-29,16 L-29,11 L-18,11 L-18,6 L-8,6 L-8,1 L-2,1 L-2,2 L-1,2 L-1,1 L0,1 Z " fill="#19110C" transform="translate(372,467)"/>
<path d="M0,0 L1,0 L1,6 L-4,6 L-4,52 L-5,52 L-5,23 L-6,23 L-6,27 L-7,27 L-7,28 L-8,28 L-8,25 L-9,25 L-9,26 L-21,26 L-21,27 L-22,27 L-22,28 L-23,28 L-23,27 L-29,27 L-29,32 L-39,32 L-39,37 L-50,37 L-50,36 L-40,36 L-40,31 L-30,31 L-30,26 L-25,26 L-25,21 L-19,21 L-19,16 L-14,16 L-14,11 L-9,11 L-9,4 L-8,4 L-8,7 L-7,7 L-7,6 L-5,6 L-5,5 L0,5 Z " fill="#2E231B" transform="translate(393,441)"/>
<path d="M0,0 L1,0 L1,9 L5,9 L5,4 L10,4 L10,53 L6,53 L6,23 L0,23 L0,24 L-1,24 L-1,23 L-5,23 L-5,18 L0,18 L0,10 L-4,10 L-4,9 L0,9 Z " fill="#9E7357" transform="translate(297,247)"/>
<path d="M0,0 L5,0 L5,5 L10,5 L10,21 L5,21 L5,11 L0,11 L0,26 L5,26 L5,28 L4,28 L4,32 L0,32 L0,52 L-1,52 L-1,36 L-2,36 L-2,37 L-3,37 L-3,34 L-4,34 L-4,35 L-5,35 L-5,26 L-1,26 L-1,11 L-5,11 L-5,16 L-11,16 L-11,11 L-6,11 L-6,10 L-5,10 L-5,6 L-4,6 L-4,5 L0,5 Z " fill="#BE9576" transform="translate(272,295)"/>
<path d="M0,0 L5,0 L5,5 L10,5 L10,10 L15,10 L15,15 L20,15 L20,21 L24,21 L24,26 L10,26 L10,21 L5,21 L5,16 L4,16 L4,11 L0,11 Z " fill="#DAB792" transform="translate(303,316)"/>
<path d="M0,0 L9,0 L9,1 L10,1 L10,43 L6,43 L6,14 L0,14 L0,19 L-4,19 L-4,10 L0,10 Z " fill="#191511" transform="translate(302,237)"/>
<path d="M0,0 L1,0 L1,22 L6,22 L6,27 L11,27 L11,32 L16,32 L16,37 L11,37 L11,33 L6,33 L6,32 L1,32 L1,27 L-5,27 L-5,32 L-10,32 L-10,33 L-14,33 L-14,37 L-20,37 L-20,32 L-15,32 L-15,27 L-20,27 L-20,23 L-15,23 L-15,25 L-14,25 L-14,26 L-9,26 L-9,24 L-8,24 L-8,23 L-7,23 L-7,22 L-4,22 L-4,21 L-3,21 L-3,22 L-2,22 L-2,21 L0,21 Z " fill="#734E38" transform="translate(255,435)"/>
<path d="M0,0 L25,0 L25,1 L26,1 L26,0 L41,0 L41,2 L30,2 L30,6 L39,6 L39,8 L38,8 L38,9 L0,9 L0,6 L8,6 L8,2 L0,2 Z " fill="#DEDDDB" transform="translate(231,248)"/>
<path d="M0,0 L2,0 L2,1 L3,1 L3,2 L4,2 L4,10 L-1,10 L-1,25 L-5,25 L-5,32 L-10,32 L-10,33 L-9,33 L-9,38 L-10,38 L-10,39 L-11,39 L-11,45 L-12,45 L-12,47 L-13,47 L-13,25 L-9,25 L-9,10 L-4,10 L-4,5 L-3,5 L-3,4 L-2,4 L-2,3 L-1,3 L-1,1 L0,1 Z " fill="#DFC363" transform="translate(244,63)"/>
<path d="M0,0 L1,0 L1,19 L5,19 L5,30 L1,30 L1,55 L6,55 L6,81 L5,81 L5,66 L1,66 L1,71 L-2,71 L-2,70 L-4,70 L-4,68 L-5,68 L-5,56 L-4,56 L-4,55 L0,55 L0,34 L-4,34 L-4,29 L0,29 Z " fill="#B78A6B" transform="translate(199,271)"/>
<path d="M0,0 L3,0 L3,4 L2,4 L2,5 L1,5 L1,10 L2,10 L2,9 L3,9 L3,8 L4,8 L4,10 L3,10 L3,12 L4,12 L4,15 L3,15 L3,19 L4,19 L4,20 L3,20 L3,21 L1,21 L1,22 L0,22 L0,40 L-10,40 L-10,28 L-3,28 L-3,26 L-4,26 L-4,4 L-2,4 L-2,2 L0,2 L0,4 L1,4 L1,1 L0,1 Z " fill="#B6886A" transform="translate(117,460)"/>
<path d="M0,0 L6,0 L6,42 L3,42 L3,43 L2,43 L2,44 L1,44 L1,46 L-4,46 L-4,45 L-5,45 L-5,43 L-9,43 L-9,42 L-5,42 L-5,37 L1,37 L1,1 L0,1 Z " fill="#B8896A" transform="translate(245,415)"/>
<path d="M0,0 L5,0 L5,6 L42,6 L42,12 L16,12 L16,16 L15,16 L15,11 L0,11 Z " fill="#BD906F" transform="translate(256,399)"/>
<path d="M0,0 L5,0 L5,25 L0,25 L0,29 L-6,29 L-6,28 L-8,28 L-8,29 L-9,29 L-9,30 L-10,30 L-10,25 L-5,25 L-5,20 L-4,20 L-4,19 L0,19 L0,9 L-4,9 L-4,10 L-5,10 L-5,14 L-10,14 L-10,5 L-3,5 L-3,2 L-1,2 L-1,1 L0,1 Z " fill="#DBC19E" transform="translate(189,286)"/>
<path d="M0,0 L5,0 L5,38 L10,38 L10,42 L13,42 L13,46 L10,46 L10,47 L5,47 L5,42 L0,42 Z " fill="#B48667" transform="translate(256,415)"/>
<path d="M0,0 L1,0 L1,30 L-6,30 L-6,22 L-7,22 L-7,21 L-12,21 L-12,33 L-13,33 L-13,34 L-14,34 L-14,35 L-15,35 L-15,27 L-16,27 L-16,14 L-8,14 L-8,15 L-7,15 L-7,17 L-3,17 L-3,2 L-2,2 L-2,1 L0,1 Z " fill="#DAB55F" transform="translate(168,74)"/>
<path d="M0,0 L5,0 L5,10 L1,10 L1,11 L0,11 L0,21 L-5,21 L-5,26 L-15,26 L-15,15 L-10,15 L-10,11 L-5,11 L-5,5 L0,5 Z " fill="#D9B791" transform="translate(194,316)"/>
<path d="M0,0 L2,0 L2,1 L3,1 L3,3 L31,3 L31,4 L5,4 L5,9 L-5,9 L-5,15 L-10,15 L-10,17 L-11,17 L-11,19 L-15,19 L-15,20 L-16,20 L-16,25 L-20,25 L-20,29 L-21,29 L-21,24 L-25,24 L-25,20 L-20,20 L-20,15 L-15,15 L-15,10 L-10,10 L-10,4 L0,4 Z " fill="#DDC2A0" transform="translate(107,343)"/>
<path d="M0,0 L5,0 L5,11 L30,11 L30,16 L10,16 L10,21 L5,21 L5,19 L6,19 L6,17 L5,17 L5,18 L3,18 L3,19 L1,19 L1,18 L-1,18 L-1,17 L-2,17 L-2,18 L-4,18 L-4,25 L-5,25 L-5,16 L0,16 Z " fill="#1E150E" transform="translate(389,420)"/>
<path d="M0,0 L2,0 L2,1 L8,1 L8,2 L3,2 L3,8 L-2,8 L-2,13 L-6,13 L-6,14 L-7,14 L-7,17 L-12,17 L-12,18 L-13,18 L-13,22 L-22,22 L-22,18 L-21,18 L-21,15 L-20,15 L-20,14 L-19,14 L-19,13 L-17,13 L-17,8 L-11,8 L-11,4 L-6,4 L-6,3 L-2,3 L-2,2 L-1,2 L-1,1 L0,1 Z " fill="#DBBD97" transform="translate(181,314)"/>
<path d="M0,0 L1,0 L1,24 L5,24 L5,35 L0,35 L0,40 L-5,40 L-5,46 L-10,46 L-10,50 L-15,50 L-15,55 L-16,55 L-16,51 L-18,51 L-18,50 L-20,50 L-20,47 L-19,47 L-19,46 L-15,46 L-15,41 L-10,41 L-10,35 L-5,35 L-5,30 L0,30 Z " fill="#C09575" transform="translate(194,281)"/>
<path d="M0,0 L5,0 L5,10 L0,10 L0,15 L-5,15 L-5,19 L-6,19 L-6,20 L-11,20 L-11,21 L-14,21 L-14,17 L-12,17 L-12,16 L-13,16 L-13,12 L-15,12 L-15,4 L0,4 Z " fill="#D6B995" transform="translate(174,296)"/>
<path d="M0,0 L1,0 L1,38 L-9,38 L-9,30 L-14,30 L-14,20 L-13,20 L-13,22 L-12,22 L-12,21 L-11,21 L-11,19 L-9,19 L-9,20 L0,20 Z " fill="#A4795D" transform="translate(485,462)"/>
<path d="M0,0 L4,0 L4,14 L5,14 L5,15 L9,15 L9,30 L10,30 L10,51 L9,51 L9,44 L8,44 L8,45 L7,45 L7,43 L6,43 L6,44 L5,44 L5,25 L0,25 Z " fill="#9C6A4C" transform="translate(200,301)"/>
<path d="M0,0 L8,0 L8,13 L2,13 L2,21 L1,21 L1,22 L0,22 L0,27 L-20,27 L-20,24 L-19,24 L-19,23 L-10,23 L-10,18 L-4,18 L-4,14 L0,14 L0,10 L1,10 L1,9 L4,9 L4,4 L0,4 Z " fill="#DDBC61" transform="translate(353,115)"/>
<path d="M0,0 L22,0 L22,18 L17,18 L17,19 L16,19 L16,24 L7,24 L7,19 L8,19 L8,18 L11,18 L11,15 L12,15 L12,14 L16,14 L16,4 L0,4 Z " fill="#DCBA61" transform="translate(248,30)"/>
<path d="M0,0 L3,0 L3,3 L4,3 L4,7 L9,7 L9,17 L13,17 L13,26 L9,26 L9,21 L3,21 L3,43 L2,43 L2,26 L0,26 L0,22 L-1,22 L-1,3 L-2,3 L-2,2 L-1,2 L-1,1 L0,1 Z " fill="#1A1511" transform="translate(191,230)"/>
<path d="M0,0 L30,0 L30,7 L-10,7 L-10,5 L0,5 Z " fill="#D6B693" transform="translate(308,493)"/>
<path d="M0,0 L7,0 L7,1 L9,1 L9,5 L10,5 L10,6 L5,6 L5,16 L0,16 L0,11 L-15,11 L-15,16 L-21,16 L-21,11 L-18,11 L-18,10 L-19,10 L-19,9 L-20,9 L-20,6 L0,6 Z " fill="#B78767" transform="translate(169,331)"/>
<path d="M0,0 L4,0 L4,26 L-1,26 L-1,28 L-3,28 L-3,26 L-4,26 L-4,25 L-5,25 L-5,23 L-4,23 L-4,22 L-1,22 L-1,21 L0,21 L0,12 L-9,12 L-9,14 L-10,14 L-10,15 L-13,15 L-13,14 L-12,14 L-12,13 L-13,13 L-13,7 L-9,7 L-9,4 L0,4 Z " fill="#D8B560" transform="translate(320,42)"/>
<path d="M0,0 L2,0 L2,3 L3,3 L3,4 L2,4 L2,5 L3,5 L3,7 L4,7 L4,5 L5,5 L5,6 L7,6 L7,7 L5,7 L5,11 L-4,11 L-4,14 L-7,14 L-7,18 L-8,18 L-8,23 L-12,23 L-12,18 L-9,18 L-9,17 L-16,17 L-16,19 L-19,19 L-19,16 L-16,16 L-16,8 L-11,8 L-11,4 L0,4 Z " fill="#33271D" transform="translate(276,171)"/>
<path d="M0,0 L9,0 L9,1 L10,1 L10,5 L9,5 L9,3 L8,3 L8,2 L0,2 L0,15 L1,15 L1,23 L2,23 L2,22 L3,22 L3,21 L4,21 L4,9 L9,9 L9,10 L5,10 L5,24 L9,24 L9,38 L4,38 L4,34 L1,34 L1,33 L0,33 L0,26 L-1,26 L-1,27 L-2,27 L-2,28 L-6,28 L-6,27 L-7,27 L-7,19 L-5,19 L-5,23 L-1,23 L-1,22 L0,22 L0,21 L-1,21 L-1,1 L0,1 Z " fill="#E0C175" transform="translate(152,86)"/>
<path d="M0,0 L5,0 L5,4 L13,4 L13,8 L19,8 L19,4 L41,4 L41,5 L37,5 L37,9 L19,9 L19,13 L12,13 L12,9 L4,9 L4,5 L0,5 L0,8 L-9,8 L-9,5 L-1,5 L-1,4 L0,4 Z " fill="#483D23" transform="translate(231,129)"/>
<path d="M0,0 L4,0 L4,6 L6,6 L6,7 L4,7 L4,8 L-1,8 L-1,21 L4,21 L4,28 L-6,28 L-6,10 L-11,10 L-11,2 L-7,2 L-7,3 L-6,3 L-6,4 L-4,4 L-4,5 L-3,5 L-3,6 L-2,6 L-2,7 L0,7 Z " fill="#DABC9A" transform="translate(471,472)"/>
<path d="M0,0 L1,0 L1,4 L4,4 L4,0 L18,0 L18,4 L27,4 L27,5 L19,5 L19,8 L23,8 L23,12 L27,12 L27,13 L28,13 L28,37 L23,37 L23,13 L22,13 L22,9 L18,9 L18,5 L0,5 Z " fill="#81684B" transform="translate(276,129)"/>
<path d="M0,0 L6,0 L6,1 L5,1 L5,5 L10,5 L10,10 L5,10 L5,15 L-4,15 L-4,9 L-5,9 L-5,10 L-6,10 L-6,9 L-9,9 L-9,10 L-10,10 L-10,11 L-56,11 L-56,10 L-11,10 L-11,5 L0,5 Z " fill="#BA8C6D" transform="translate(230,457)"/>
<path d="M0,0 L9,0 L9,3 L63,3 L63,4 L59,4 L59,6 L58,6 L58,7 L28,7 L28,6 L11,6 L11,7 L13,7 L13,8 L10,8 L10,7 L9,7 L9,4 L8,4 L8,3 L0,3 Z " fill="#BB9171" transform="translate(213,239)"/>
<path d="M0,0 L22,0 L22,5 L38,5 L38,7 L-14,7 L-14,5 L0,5 Z " fill="#A77C5E" transform="translate(260,493)"/>
<path d="M0,0 L5,0 L5,5 L10,5 L10,6 L9,6 L9,7 L10,7 L10,22 L9,22 L9,23 L6,23 L6,21 L-14,21 L-14,16 L5,16 L5,6 L0,6 Z " fill="#BA8E70" transform="translate(373,399)"/>
<path d="M0,0 L15,0 L15,5 L10,5 L10,10 L-14,10 L-14,8 L-19,8 L-19,7 L-20,7 L-20,6 L-19,6 L-19,5 L0,5 Z " fill="#986546" transform="translate(333,342)"/>
<path d="M0,0 L2,0 L2,21 L3,21 L3,26 L-1,26 L-1,27 L-2,27 L-2,31 L-11,31 L-11,29 L-10,29 L-10,28 L-9,28 L-9,26 L-8,26 L-8,17 L-5,17 L-5,15 L-4,15 L-4,11 L-3,11 L-3,10 L-2,10 L-2,7 L-1,7 L-1,1 L0,1 Z " fill="#DCBB5E" transform="translate(299,32)"/>
<path d="M0,0 L5,0 L5,5 L14,5 L14,6 L9,6 L9,15 L14,15 L14,19 L19,19 L19,24 L21,24 L21,39 L20,39 L20,25 L18,25 L18,20 L13,20 L13,21 L10,21 L10,19 L0,19 Z " fill="#986E53" transform="translate(195,251)"/>
<path d="M0,0 L42,0 L42,5 L-2,5 L-2,4 L1,4 L1,3 L2,3 L2,1 L0,1 Z " fill="#E8D8C5" transform="translate(296,358)"/>
<path d="M0,0 L5,0 L5,16 L10,16 L10,42 L5,42 L5,59 L4,59 L4,41 L5,41 L5,40 L7,40 L7,39 L8,39 L8,38 L7,38 L7,34 L8,34 L8,31 L7,31 L7,29 L8,29 L8,27 L7,27 L7,28 L6,28 L6,29 L5,29 L5,24 L6,24 L6,23 L7,23 L7,19 L4,19 L4,20 L5,20 L5,23 L4,23 L4,21 L2,21 L2,23 L0,23 L0,12 L1,12 L1,7 L2,7 L2,5 L1,5 L1,3 L2,3 L2,2 L1,2 L1,1 L0,1 Z " fill="#A67D65" transform="translate(113,441)"/>
<path d="M0,0 L4,0 L4,10 L0,10 L0,11 L-1,11 L-1,16 L-6,16 L-6,21 L-16,21 L-16,26 L-21,26 L-21,21 L-17,21 L-17,20 L-16,20 L-16,16 L-11,16 L-11,11 L-6,11 L-6,5 L-1,5 L-1,1 L0,1 Z " fill="#EBDFD0" transform="translate(185,295)"/>
<path d="M0,0 L1,0 L1,4 L-1,4 L-1,5 L-4,5 L-4,8 L10,8 L10,11 L12,11 L12,13 L14,13 L14,16 L15,16 L15,17 L17,17 L17,18 L19,18 L19,22 L22,22 L22,23 L18,23 L18,19 L14,19 L14,18 L12,18 L12,19 L11,19 L11,21 L12,21 L12,22 L9,22 L9,18 L0,18 L0,13 L-4,13 L-4,9 L-8,9 L-8,3 L-6,3 L-6,2 L-5,2 L-5,3 L0,3 Z " fill="#E6D383" transform="translate(156,129)"/>
<path d="M0,0 L4,0 L4,4 L8,4 L8,28 L7,28 L7,24 L6,24 L6,21 L3,21 L3,22 L1,22 L1,21 L2,21 L2,19 L-8,19 L-8,14 L-11,14 L-11,9 L-7,9 L-7,14 L3,14 L3,9 L0,9 Z " fill="#332B22" transform="translate(188,209)"/>
<path d="M0,0 L1,0 L1,5 L41,5 L41,0 L42,0 L42,5 L46,5 L46,6 L51,6 L51,10 L41,10 L41,6 L16,6 L16,9 L15,9 L15,10 L-9,10 L-9,5 L0,5 Z " fill="#7F604E" transform="translate(373,326)"/>
<path d="M0,0 L4,0 L4,1 L1,1 L1,5 L0,5 L0,6 L-2,6 L-2,8 L-3,8 L-3,13 L-2,13 L-2,12 L-1,12 L-1,11 L3,11 L3,9 L9,9 L9,5 L13,5 L13,0 L18,0 L18,5 L15,5 L15,6 L14,6 L14,8 L13,8 L13,9 L12,9 L12,10 L4,10 L4,15 L0,15 L0,19 L-4,19 L-4,29 L-8,29 L-8,34 L-12,34 L-12,29 L-9,29 L-9,28 L-8,28 L-8,14 L-4,14 L-4,4 L0,4 Z " fill="#E8D482" transform="translate(263,95)"/>
<path d="M0,0 L26,0 L26,5 L41,5 L41,7 L5,7 L5,5 L0,5 Z " fill="#D9BA97" transform="translate(174,493)"/>
<path d="M0,0 L11,0 L11,11 L0,11 L0,16 L-10,16 L-10,10 L-6,10 L-6,9 L-5,9 L-5,6 L0,6 Z " fill="#E9DBCA" transform="translate(276,415)"/>
<path d="M0,0 L2,0 L2,1 L1,1 L1,3 L0,3 L0,11 L5,11 L5,12 L3,12 L3,14 L0,14 L0,15 L-14,15 L-14,16 L-15,16 L-15,15 L-16,15 L-16,11 L-15,11 L-15,10 L-16,10 L-16,8 L-14,8 L-14,7 L-10,7 L-10,1 L0,1 Z " fill="#DCC29F" transform="translate(240,477)"/>
<path d="M0,0 L2,0 L2,1 L3,1 L3,6 L2,6 L2,7 L1,7 L1,8 L-1,8 L-1,9 L-2,9 L-2,13 L-1,13 L-1,14 L1,14 L1,16 L-1,16 L-1,17 L-6,17 L-6,16 L-8,16 L-8,15 L-7,15 L-7,14 L-6,14 L-6,13 L-5,13 L-5,11 L-6,11 L-6,12 L-7,12 L-7,13 L-8,13 L-8,11 L-9,11 L-9,13 L-19,13 L-19,12 L-22,12 L-22,10 L-23,10 L-23,11 L-27,11 L-27,12 L-31,12 L-31,9 L-22,9 L-22,5 L-21,5 L-21,4 L-19,4 L-19,5 L-18,5 L-18,9 L-9,9 L-9,5 L-8,5 L-8,4 L0,4 Z " fill="#DEBE5F" transform="translate(303,115)"/>
<path d="M0,0 L50,0 L50,4 L0,4 Z " fill="#19110C" transform="translate(164,483)"/>
<path d="M0,0 L6,0 L6,5 L11,5 L11,11 L16,11 L16,16 L21,16 L21,31 L25,31 L25,32 L15,32 L15,16 L10,16 L10,11 L5,11 L5,6 L1,6 L1,5 L0,5 Z " fill="#C69E7D" transform="translate(419,357)"/>
<path d="M0,0 L25,0 L25,4 L26,4 L26,5 L27,5 L27,6 L28,6 L28,7 L27,7 L27,9 L28,9 L28,11 L27,11 L27,16 L26,16 L26,49 L27,49 L27,51 L20,51 L20,50 L25,50 L25,10 L20,10 L20,4 L0,4 Z " fill="#BE9375" transform="translate(87,437)"/>
<path d="M0,0 L1,0 L1,25 L5,25 L5,24 L6,24 L6,25 L12,25 L12,17 L8,17 L8,18 L7,18 L7,19 L6,19 L6,17 L7,17 L7,16 L8,16 L8,11 L4,11 L4,3 L13,3 L13,11 L9,11 L9,15 L13,15 L13,25 L20,25 L20,26 L17,26 L17,35 L20,35 L20,40 L10,40 L10,39 L16,39 L16,26 L6,26 L6,40 L5,40 L5,36 L0,36 L0,35 L5,35 L5,26 L0,26 Z " fill="#927761" transform="translate(171,183)"/>
<path d="M0,0 L4,0 L4,5 L0,5 L0,14 L-4,14 L-4,18 L-8,18 L-8,22 L-13,22 L-13,26 L-17,26 L-17,36 L-18,36 L-18,32 L-20,32 L-20,30 L-19,30 L-19,28 L-18,28 L-18,27 L-19,27 L-19,26 L-20,26 L-20,27 L-21,27 L-21,22 L-17,22 L-17,18 L-13,18 L-13,15 L-12,15 L-12,14 L-9,14 L-9,13 L-8,13 L-8,10 L-4,10 L-4,4 L0,4 Z " fill="#E0C56A" transform="translate(276,73)"/>
<path d="M0,0 L1,0 L1,14 L-3,14 L-3,20 L0,20 L0,24 L-19,24 L-19,19 L-15,19 L-15,14 L-13,14 L-13,10 L-10,10 L-10,4 L-5,4 L-5,6 L-6,6 L-6,12 L-8,12 L-8,11 L-9,11 L-9,12 L-10,12 L-10,14 L-11,14 L-11,15 L-12,15 L-12,18 L-10,18 L-10,20 L-9,20 L-9,18 L-7,18 L-7,17 L-6,17 L-6,15 L-5,15 L-5,14 L-4,14 L-4,13 L-1,13 L-1,7 L0,7 Z " fill="#D9BA67" transform="translate(352,100)"/>
<path d="M0,0 L7,0 L7,1 L8,1 L8,9 L7,9 L7,18 L3,18 L3,23 L4,23 L4,24 L5,24 L5,25 L2,25 L2,26 L-6,26 L-6,17 L-2,17 L-2,14 L3,14 L3,4 L-2,4 L-2,2 L-1,2 L-1,1 L0,1 Z " fill="#D9B65F" transform="translate(335,73)"/>
<path d="M0,0 L1,0 L1,2 L0,2 L0,6 L-2,6 L-2,7 L0,7 L0,9 L-1,9 L-1,30 L-6,30 L-6,43 L-10,43 L-10,26 L-5,26 L-5,1 L-4,1 L-4,3 L-3,3 L-3,1 L-2,1 L-2,2 L-1,2 L-1,1 L0,1 Z " fill="#19120E" transform="translate(128,457)"/>
<path d="M0,0 L4,0 L4,10 L15,10 L15,14 L9,14 L9,20 L4,20 L4,25 L-1,25 L-1,6 L0,6 Z " fill="#B18163" transform="translate(262,348)"/>
<path d="M0,0 L4,0 L4,3 L12,3 L12,0 L17,0 L17,4 L26,4 L26,12 L13,12 L13,9 L4,9 L4,4 L0,4 Z " fill="#E8D37F" transform="translate(316,146)"/>
<path d="M0,0 L15,0 L15,1 L11,1 L11,2 L9,2 L9,4 L10,4 L10,5 L9,5 L9,9 L10,9 L10,15 L30,15 L30,10 L31,10 L31,17 L0,17 L0,12 L1,12 L1,11 L2,11 L2,10 L3,10 L3,9 L4,9 L4,8 L5,8 L5,5 L0,5 Z " fill="#CFAD8C" transform="translate(215,483)"/>
<path d="M0,0 L1,0 L1,37 L6,37 L6,52 L1,52 L1,42 L-4,42 L-4,47 L-10,47 L-10,52 L-15,52 L-15,46 L-11,46 L-11,42 L-10,42 L-10,41 L0,41 Z " fill="#6B503C" transform="translate(40,384)"/>
<path d="M0,0 L16,0 L16,5 L20,5 L20,10 L16,10 L16,15 L6,15 L6,11 L11,11 L11,5 L5,5 L5,9 L1,9 L1,5 L0,5 Z " fill="#956346" transform="translate(153,457)"/>
<path d="M0,0 L38,0 L38,3 L37,3 L37,4 L36,4 L36,5 L1,5 L1,4 L0,4 Z " fill="#E8DAC7" transform="translate(169,358)"/>
<path d="M0,0 L6,0 L6,4 L7,4 L7,6 L6,6 L6,7 L3,7 L3,9 L2,9 L2,66 L3,66 L3,67 L4,67 L4,68 L3,68 L3,69 L4,69 L4,70 L5,70 L5,75 L1,75 L1,71 L-8,71 L-8,66 L-3,66 L-3,67 L-2,67 L-2,70 L1,70 L1,5 L-3,5 L-3,10 L-6,10 L-6,7 L-5,7 L-5,6 L-4,6 L-4,4 L-2,4 L-2,1 L-1,1 L-1,2 L0,2 Z " fill="#E0C86F" transform="translate(216,39)"/>
<path d="M0,0 L5,0 L5,15 L0,15 L0,53 L-1,53 L-1,23 L-2,23 L-2,16 L-3,16 L-3,15 L-4,15 L-4,14 L-3,14 L-3,12 L-4,12 L-4,11 L-5,11 L-5,53 L-6,53 L-6,10 L0,10 Z " fill="#474038" transform="translate(15,447)"/>
<path d="M0,0 L1,0 L1,8 L3,8 L3,4 L10,4 L10,3 L11,3 L11,4 L15,4 L15,17 L14,17 L14,18 L11,18 L11,17 L13,17 L13,15 L12,15 L12,16 L10,16 L10,17 L7,17 L7,13 L0,13 L0,17 L-5,17 L-5,16 L-2,16 L-2,15 L-3,15 L-3,14 L-4,14 L-4,12 L-1,12 L-1,9 L0,9 Z " fill="#DBBF74" transform="translate(342,82)"/>
<path d="M0,0 L4,0 L4,14 L-1,14 L-1,17 L-21,17 L-21,15 L-11,15 L-11,10 L-6,10 L-6,5 L0,5 Z " fill="#C69C7C" transform="translate(369,483)"/>
<path d="M0,0 L5,0 L5,6 L20,6 L20,10 L21,10 L21,11 L24,11 L24,12 L23,12 L23,14 L22,14 L22,15 L13,15 L13,14 L12,14 L12,13 L10,13 L10,11 L9,11 L9,10 L-1,10 L-1,1 L0,1 Z " fill="#E9DCCC" transform="translate(220,415)"/>
<path d="M0,0 L1,0 L1,9 L6,9 L6,25 L10,25 L10,26 L5,26 L5,66 L4,66 L4,49 L2,49 L2,50 L1,50 L1,52 L0,52 L0,25 L5,25 L5,10 L0,10 Z " fill="#AE8E7A" transform="translate(455,358)"/>
<path d="M0,0 L4,0 L4,10 L9,10 L9,26 L8,26 L8,24 L6,24 L6,22 L5,22 L5,30 L4,30 L4,20 L-1,20 L-1,2 L0,2 Z " fill="#AF8163" transform="translate(231,327)"/>
<path d="M0,0 L1,0 L1,28 L11,28 L11,31 L12,31 L12,35 L11,35 L11,42 L13,42 L13,43 L15,43 L15,44 L27,44 L27,45 L23,45 L23,70 L22,70 L22,45 L15,45 L15,46 L14,46 L14,49 L10,49 L10,54 L12,54 L12,53 L13,53 L13,52 L18,52 L18,56 L9,56 L9,48 L13,48 L13,45 L9,45 L9,29 L1,29 L1,33 L0,33 L0,29 L-4,29 L-4,28 L0,28 Z " fill="#998053" transform="translate(307,138)"/>
<path d="M0,0 L5,0 L5,1 L6,1 L6,4 L7,4 L7,5 L10,5 L10,4 L8,4 L8,3 L25,3 L25,4 L60,4 L60,5 L14,5 L14,9 L23,9 L23,11 L14,11 L14,14 L10,14 L10,9 L5,9 L5,5 L0,5 Z " fill="#7A695C" transform="translate(216,242)"/>
<path d="M0,0 L5,0 L5,11 L0,11 L0,26 L-5,26 L-5,28 L-10,28 L-10,21 L-5,21 L-5,10 L0,10 Z " fill="#CBA489" transform="translate(87,472)"/>
<path d="M0,0 L1,0 L1,10 L6,10 L6,15 L11,15 L11,16 L1,16 L1,26 L-4,26 L-4,16 L-9,16 L-9,11 L-4,11 L-4,5 L0,5 Z " fill="#C09876" transform="translate(454,441)"/>
<path d="M0,0 L13,0 L13,4 L25,4 L25,6 L26,6 L26,7 L18,7 L18,9 L17,9 L17,11 L10,11 L10,7 L-4,7 L-4,4 L0,4 Z " fill="#211B12" transform="translate(200,167)"/>
<path d="M0,0 L5,0 L5,1 L17,1 L17,2 L32,2 L32,1 L42,1 L42,3 L41,3 L41,6 L37,6 L37,7 L36,7 L36,10 L35,10 L35,5 L0,5 Z " fill="#B4876B" transform="translate(303,488)"/>
<path d="M0,0 L10,0 L10,5 L5,5 L5,9 L4,9 L4,10 L1,10 L1,14 L5,14 L5,10 L10,10 L10,15 L0,15 L0,8 L-1,8 L-1,7 L-3,7 L-3,6 L-13,6 L-13,7 L-28,7 L-28,6 L-40,6 L-40,5 L0,5 Z " fill="#AC8066" transform="translate(348,483)"/>
<path d="M0,0 L1,0 L1,29 L7,29 L7,36 L1,36 L1,34 L-3,34 L-3,2 L-2,2 L-2,5 L-1,5 L-1,4 L0,4 Z " fill="#1F1611" transform="translate(387,464)"/>
<path d="M0,0 L6,0 L6,5 L18,5 L18,0 L28,0 L28,5 L25,5 L25,9 L3,9 L3,4 L0,4 Z " fill="#E1DBD4" transform="translate(207,194)"/>
<path d="M0,0 L8,0 L8,16 L12,16 L12,19 L8,19 L8,28 L12,28 L12,31 L5,31 L5,32 L4,32 L4,4 L0,4 Z " fill="#241C11" transform="translate(308,167)"/>
<path d="M0,0 L4,0 L4,41 L0,41 Z " fill="#120F0A" transform="translate(36,384)"/>
<path d="M0,0 L1,0 L1,12 L-5,12 L-5,17 L-9,17 L-9,23 L-14,23 L-14,22 L-24,22 L-24,17 L-15,17 L-15,15 L-14,15 L-14,12 L-9,12 L-9,7 L-4,7 L-4,8 L-6,8 L-6,11 L-4,11 L-4,10 L-3,10 L-3,11 L0,11 Z " fill="#9D6B4D" transform="translate(459,429)"/>
<path d="M0,0 L1,0 L1,10 L6,10 L6,15 L9,15 L9,16 L11,16 L11,26 L16,26 L16,36 L21,36 L21,42 L20,42 L20,37 L15,37 L15,31 L11,31 L11,36 L10,36 L10,26 L5,26 L5,16 L1,16 L1,15 L0,15 L0,11 L-4,11 L-4,10 L0,10 Z " fill="#C59D7D" transform="translate(373,368)"/>
<path d="M0,0 L4,0 L4,16 L3,16 L3,17 L1,17 L1,18 L0,18 L0,29 L-1,29 L-1,13 L-2,13 L-2,14 L-10,14 L-10,11 L-11,11 L-11,10 L-10,10 L-10,9 L-6,9 L-6,4 L0,4 Z " fill="#D6B38F" transform="translate(298,271)"/>
<path d="M0,0 L5,0 L5,2 L7,2 L7,6 L8,6 L8,7 L6,7 L6,11 L9,11 L9,12 L8,12 L8,13 L7,13 L7,14 L-4,14 L-4,10 L-10,10 L-10,5 L-1,5 L-1,4 L0,4 Z " fill="#D0B08B" transform="translate(154,306)"/>
<path d="M0,0 L5,0 L5,10 L13,10 L13,15 L5,15 L5,25 L4,25 L4,24 L0,24 Z " fill="#25201A" transform="translate(307,213)"/>
<path d="M0,0 L5,0 L5,11 L10,11 L10,16 L5,16 L5,21 L-1,21 L-1,16 L-5,16 L-5,11 L0,11 Z " fill="#B48667" transform="translate(123,394)"/>
<path d="M0,0 L16,0 L16,5 L6,5 L6,10 L0,10 L0,15 L-5,15 L-5,5 L0,5 Z " fill="#E6D8C5" transform="translate(266,384)"/>
<path d="M0,0 L2,0 L2,22 L11,22 L11,17 L12,17 L12,22 L22,22 L22,28 L6,28 L6,27 L12,27 L12,23 L1,23 L1,13 L-3,13 L-3,19 L-4,19 L-4,12 L-3,12 L-3,1 L0,1 Z " fill="#BF9273" transform="translate(265,335)"/>
<path d="M0,0 L40,0 L40,4 L0,4 Z " fill="#41392E" transform="translate(231,257)"/>
<path d="M0,0 L6,0 L6,5 L2,5 L2,19 L1,19 L1,20 L-8,20 L-8,19 L-9,19 L-9,15 L-8,15 L-8,14 L-6,14 L-6,13 L-5,13 L-5,12 L-4,12 L-4,7 L-5,7 L-5,6 L-7,6 L-7,10 L-10,10 L-10,9 L-9,9 L-9,8 L-8,8 L-8,5 L1,5 L1,3 L0,3 Z " fill="#E5D078" transform="translate(310,109)"/>
<path d="M0,0 L6,0 L6,28 L1,28 L1,36 L12,36 L12,35 L13,35 L13,32 L14,32 L14,31 L25,31 L25,41 L24,41 L24,33 L23,33 L23,32 L16,32 L16,33 L15,33 L15,34 L14,34 L14,36 L19,36 L19,46 L14,46 L14,45 L13,45 L13,43 L7,43 L7,42 L14,42 L14,37 L0,37 L0,27 L5,27 L5,1 L1,1 L1,5 L-8,5 L-8,4 L0,4 Z " fill="#E5D194" transform="translate(319,41)"/>
<path d="M0,0 L5,0 L5,2 L7,2 L7,1 L8,1 L8,0 L13,0 L13,4 L16,4 L16,5 L17,5 L17,14 L13,14 L13,10 L8,10 L8,5 L5,5 L5,10 L0,10 L0,5 L-4,5 L-4,9 L-5,9 L-5,4 L0,4 Z " fill="#E6D27E" transform="translate(200,110)"/>
<path d="M0,0 L10,0 L10,5 L15,5 L15,10 L25,10 L25,16 L10,16 L10,10 L5,10 L5,5 L6,5 L6,4 L7,4 L7,6 L9,6 L9,5 L8,5 L8,1 L0,1 Z " fill="#1E150E" transform="translate(138,467)"/>
<path d="M0,0 L10,0 L10,6 L15,6 L15,10 L16,10 L16,11 L19,11 L19,15 L20,15 L20,16 L10,16 L10,11 L5,11 L5,6 L0,6 Z " fill="#EADECE" transform="translate(313,300)"/>
<path d="M0,0 L5,0 L5,4 L4,4 L4,5 L-25,5 L-25,10 L-36,10 L-36,15 L-37,15 L-37,10 L-41,10 L-41,9 L-56,9 L-56,5 L-36,5 L-36,9 L-26,9 L-26,4 L-1,4 L-1,3 L0,3 Z " fill="#BB9171" transform="translate(389,332)"/>
<path d="M0,0 L8,0 L8,4 L4,4 L4,28 L-1,28 L-1,32 L-4,32 L-4,24 L0,24 Z " fill="#251E13" transform="translate(192,138)"/>
<path d="M0,0 L5,0 L5,1 L4,1 L4,35 L3,35 L3,33 L1,33 L1,41 L2,41 L2,44 L1,44 L1,45 L5,45 L5,46 L0,46 Z " fill="#AE8368" transform="translate(389,447)"/>
<path d="M0,0 L2,0 L2,3 L3,3 L3,5 L4,5 L4,6 L5,6 L5,8 L6,8 L6,9 L8,9 L8,10 L9,10 L9,11 L12,11 L12,12 L10,12 L10,13 L8,13 L8,14 L6,14 L6,16 L5,16 L5,17 L3,17 L3,11 L-1,11 L-1,18 L-3,18 L-3,17 L-4,17 L-4,16 L-5,16 L-5,15 L-7,15 L-7,14 L-8,14 L-8,13 L-11,13 L-11,11 L-10,11 L-10,10 L-8,10 L-8,9 L-5,9 L-5,8 L-4,8 L-4,7 L-2,7 L-2,5 L-1,5 L-1,2 L0,2 Z " fill="#EAD6BE" transform="translate(472,461)"/>
<path d="M0,0 L10,0 L10,5 L5,5 L5,10 L0,10 L0,15 L-5,15 L-5,20 L-9,20 L-9,11 L-6,11 L-6,14 L-3,14 L-3,12 L-5,12 L-5,11 L-4,11 L-4,10 L-5,10 L-5,5 L0,5 Z " fill="#181411" transform="translate(61,342)"/>
<path d="M0,0 L6,0 L6,4 L17,4 L17,3 L18,3 L18,2 L19,2 L19,0 L20,0 L20,5 L25,5 L25,0 L35,0 L35,1 L31,1 L31,2 L26,2 L26,6 L5,6 L5,10 L9,10 L9,15 L15,15 L15,10 L20,10 L20,11 L18,11 L18,12 L17,12 L17,13 L16,13 L16,16 L15,16 L15,18 L10,18 L10,17 L9,17 L9,18 L8,18 L8,13 L7,13 L7,12 L5,12 L5,11 L3,11 L3,10 L1,10 L1,7 L2,7 L2,6 L3,6 L3,4 L1,4 L1,5 L0,5 Z " fill="#DCC6A9" transform="translate(144,316)"/>
<path d="M0,0 L3,0 L3,11 L8,11 L8,54 L7,54 L7,18 L6,18 L6,19 L3,19 L3,16 L-2,16 L-2,1 L0,1 Z " fill="#201D1A" transform="translate(483,446)"/>
<path d="M0,0 L1,0 L1,5 L-4,5 L-4,10 L-35,10 L-35,6 L-9,6 L-9,1 L-5,1 L-5,2 L-8,2 L-8,3 L-5,3 L-5,4 L0,4 Z " fill="#1A1510" transform="translate(132,321)"/>
<path d="M0,0 L3,0 L3,13 L4,13 L4,26 L-2,26 L-2,25 L-4,25 L-4,14 L-1,14 L-1,8 L-3,8 L-3,5 L0,5 Z " fill="#D9B963" transform="translate(179,63)"/>
<path d="M0,0 L9,0 L9,5 L4,5 L4,10 L-1,10 L-1,12 L-11,12 L-11,5 L-4,5 L-4,3 L-1,3 L-1,1 L0,1 Z " fill="#B38668" transform="translate(26,488)"/>
<path d="M0,0 L1,0 L1,1 L2,1 L2,3 L1,3 L1,4 L2,4 L2,5 L3,5 L3,12 L4,12 L4,42 L0,42 Z " fill="#0C0B0A" transform="translate(10,458)"/>
<path d="M0,0 L1,0 L1,3 L5,3 L5,2 L6,2 L6,3 L24,3 L24,0 L25,0 L25,2 L27,2 L27,3 L26,3 L26,4 L29,4 L29,5 L27,5 L27,6 L28,6 L28,7 L27,7 L27,9 L26,9 L26,10 L36,10 L36,15 L25,15 L25,11 L5,11 L5,10 L25,10 L25,5 L0,5 Z " fill="#A07860" transform="translate(394,426)"/>
<path d="M0,0 L1,0 L1,16 L5,16 L5,32 L-1,32 L-1,30 L-4,30 L-4,18 L-1,18 L-1,17 L0,17 L0,2 L-1,2 L-1,1 L0,1 Z " fill="#B5866A" transform="translate(383,404)"/>
<path d="M0,0 L1,0 L1,8 L3,8 L3,11 L-3,11 L-3,15 L-8,15 L-8,8 L-31,8 L-31,9 L-21,9 L-21,10 L-35,10 L-35,15 L-39,15 L-39,7 L-8,7 L-8,5 L-7,5 L-7,7 L0,7 Z " fill="#4D3C2E" transform="translate(239,179)"/>
<path d="M0,0 L10,0 L10,4 L11,4 L11,5 L16,5 L16,11 L20,11 L20,16 L15,16 L15,11 L5,11 L5,6 L0,6 Z " fill="#3D2E24" transform="translate(343,300)"/>
<path d="M0,0 L2,0 L2,2 L1,2 L1,3 L0,3 L0,6 L2,6 L2,7 L4,7 L4,8 L6,8 L6,9 L7,9 L7,14 L8,14 L8,13 L9,13 L9,14 L14,14 L14,16 L23,16 L23,12 L24,12 L24,17 L4,17 L4,16 L-1,16 L-1,11 L-5,11 L-5,9 L-3,9 L-3,7 L-2,7 L-2,6 L-4,6 L-4,3 L-3,3 L-3,2 L-1,2 L-1,1 L0,1 Z " fill="#D7B68F" transform="translate(145,320)"/>
<path d="M0,0 L8,0 L8,5 L19,5 L19,0 L26,0 L26,4 L22,4 L22,9 L4,9 L4,5 L0,5 Z " fill="#E2DCD5" transform="translate(268,194)"/>
<path d="M0,0 L5,0 L5,20 L0,20 L0,25 L-5,25 L-5,26 L-6,26 L-6,35 L-11,35 L-11,25 L-6,25 L-6,20 L-1,20 L-1,15 L4,15 L4,4 L0,4 Z " fill="#C09877" transform="translate(41,437)"/>
<path d="M0,0 L3,0 L3,37 L0,37 L0,27 L-4,27 L-4,23 L0,23 L0,15 L-5,15 L-5,12 L0,12 Z " fill="#241B10" transform="translate(184,171)"/>
<path d="M0,0 L1,0 L1,36 L-3,36 L-3,1 L0,1 Z " fill="#15120E" transform="translate(489,464)"/>
<path d="M0,0 L5,0 L5,5 L10,5 L10,10 L15,10 L15,12 L-5,12 L-5,5 L0,5 Z " fill="#CEA785" transform="translate(138,488)"/>
<path d="M0,0 L4,0 L4,6 L5,6 L5,16 L10,16 L10,21 L5,21 L5,37 L4,37 L4,21 L0,21 Z " fill="#936549" transform="translate(384,399)"/>
<path d="M0,0 L9,0 L9,5 L0,5 L0,11 L-5,11 L-5,16 L-10,16 L-10,20 L-15,20 L-15,15 L-11,15 L-11,11 L-10,11 L-10,10 L-6,10 L-6,5 L-1,5 L-1,4 L0,4 Z " fill="#CAA483" transform="translate(97,342)"/>
<path d="M0,0 L5,0 L5,5 L15,5 L15,6 L5,6 L5,26 L4,26 L4,31 L-6,31 L-6,26 L-1,26 L-1,21 L4,21 L4,11 L-1,11 L-1,6 L4,6 L4,1 L0,1 Z " fill="#B08B71" transform="translate(359,310)"/>
<path d="M0,0 L10,0 L10,1 L11,1 L11,6 L6,6 L6,10 L-10,10 L-10,5 L0,5 Z " fill="#524539" transform="translate(168,290)"/>
<path d="M0,0 L5,0 L5,5 L1,5 L1,9 L0,9 L0,10 L-4,10 L-4,14 L-5,14 L-5,10 L-13,10 L-13,15 L-16,15 L-16,19 L-21,19 L-21,15 L-20,15 L-20,14 L-18,14 L-18,5 L-13,5 L-13,9 L-5,9 L-5,5 L-1,5 L-1,4 L0,4 Z " fill="#E4CD75" transform="translate(285,100)"/>
<path d="M0,0 L1,0 L1,4 L51,4 L51,0 L52,0 L52,4 L66,4 L66,0 L67,0 L67,5 L52,5 L52,10 L1,10 L1,9 L0,9 Z M1,5 L1,9 L51,9 L51,5 Z " fill="#654F40" transform="translate(163,478)"/>
<path d="M0,0 L3,0 L3,11 L2,11 L2,32 L0,32 L0,33 L-1,33 L-1,32 L-2,32 L-2,2 L-1,2 L-1,1 L0,1 Z " fill="#916246" transform="translate(253,424)"/>
<path d="M0,0 L1,0 L1,5 L-4,5 L-4,10 L-10,10 L-10,16 L-15,16 L-15,26 L-20,26 L-20,15 L-16,15 L-16,14 L-15,14 L-15,4 L-10,4 L-10,8 L-9,8 L-9,9 L-5,9 L-5,4 L0,4 Z " fill="#C39979" transform="translate(148,368)"/>
<path d="M0,0 L4,0 L4,1 L5,1 L5,0 L11,0 L11,21 L10,21 L10,29 L9,29 L9,30 L6,30 L6,19 L7,19 L7,18 L9,18 L9,17 L10,17 L10,1 L6,1 L6,5 L0,5 L0,10 L-4,10 L-4,1 L0,1 Z " fill="#B78B6C" transform="translate(292,270)"/>
<path d="M0,0 L10,0 L10,2 L13,2 L13,1 L18,1 L18,6 L20,6 L20,16 L15,16 L15,10 L14,10 L14,5 L9,5 L9,1 L4,1 L4,10 L0,10 Z " fill="#B28669" transform="translate(195,270)"/>
<path d="M0,0 L16,0 L16,5 L5,5 L5,10 L-5,10 L-5,4 L-3,4 L-3,2 L-2,2 L-2,3 L1,3 L1,2 L2,2 L2,1 L0,1 Z " fill="#DABD9B" transform="translate(287,488)"/>
<path d="M0,0 L3,0 L3,1 L2,1 L2,2 L1,2 L1,5 L-1,5 L-1,10 L-5,10 L-5,12 L-6,12 L-6,14 L-10,14 L-10,16 L-12,16 L-12,12 L-13,12 L-13,10 L-14,10 L-14,9 L-17,9 L-17,8 L-18,8 L-18,6 L-17,6 L-17,5 L-5,5 L-5,4 L-4,4 L-4,1 L0,1 Z " fill="#DBB55E" transform="translate(209,44)"/>
<path d="M0,0 L1,0 L1,40 L6,40 L6,52 L1,52 L1,44 L-3,44 L-3,43 L-2,43 L-2,40 L-3,40 L-3,32 L-1,32 L-1,34 L0,34 Z " fill="#B78B6D" transform="translate(393,448)"/>
<path d="M0,0 L6,0 L6,6 L1,6 L1,10 L0,10 L0,11 L-9,11 L-9,16 L-15,16 L-15,10 L-10,10 L-10,5 L0,5 Z " fill="#3D332E" transform="translate(153,300)"/>
<path d="M0,0 L6,0 L6,4 L11,4 L11,9 L10,9 L10,5 L6,5 L6,21 L0,21 Z " fill="#4D3C2C" transform="translate(220,285)"/>
<path d="M0,0 L5,0 L5,4 L20,4 L20,5 L5,5 L5,10 L-15,10 L-15,5 L-3,5 L-3,7 L-1,7 L-1,6 L1,6 L1,5 L0,5 Z " fill="#B68667" transform="translate(328,337)"/>
<path d="M0,0 L1,0 L1,3 L3,3 L3,4 L2,4 L2,5 L-2,5 L-2,7 L-3,7 L-3,8 L-4,8 L-4,10 L-5,10 L-5,13 L-4,13 L-4,14 L8,14 L8,13 L9,13 L9,14 L10,14 L10,13 L13,13 L13,14 L18,14 L18,16 L7,16 L7,46 L6,46 L6,16 L-8,16 L-8,15 L-9,15 L-9,12 L-8,12 L-8,7 L-4,7 L-4,4 L-3,4 L-3,3 L0,3 Z " fill="#D0BF84" transform="translate(160,167)"/>
<path d="M0,0 L14,0 L14,5 L10,5 L10,9 L20,9 L20,0 L27,0 L27,5 L21,5 L21,10 L9,10 L9,5 L3,5 L3,9 L6,9 L6,10 L2,10 L2,5 L0,5 Z " fill="#BBB9B5" transform="translate(204,189)"/>
<path d="M0,0 L5,0 L5,1 L1,1 L1,47 L5,47 L5,52 L4,52 L4,56 L3,56 L3,57 L2,57 L2,58 L1,58 L1,57 L-3,57 L-3,66 L-4,66 L-4,57 L-5,57 L-5,56 L-8,56 L-8,52 L-4,52 L-4,56 L0,56 L0,51 L-1,51 L-1,50 L-2,50 L-2,49 L-1,49 L-1,48 L-2,48 L-2,47 L-1,47 L-1,46 L0,46 Z " fill="#DDC46A" transform="translate(221,58)"/>
<path d="M0,0 L14,0 L14,5 L22,5 L22,8 L31,8 L31,10 L35,10 L35,12 L5,12 L5,11 L21,11 L21,10 L22,10 L22,9 L9,9 L9,5 L13,5 L13,1 L0,1 Z " fill="#B29778" transform="translate(196,174)"/>
<path d="M0,0 L14,0 L14,5 L5,5 L5,6 L4,6 L4,10 L-10,10 L-10,6 L0,6 Z " fill="#181412" transform="translate(82,331)"/>
<path d="M0,0 L6,0 L6,1 L21,1 L21,4 L61,4 L61,5 L0,5 Z " fill="#382A20" transform="translate(287,483)"/>
<path d="M0,0 L6,0 L6,1 L7,1 L7,3 L9,3 L9,9 L4,9 L4,14 L0,14 L0,18 L-3,18 L-3,21 L-9,21 L-9,18 L-5,18 L-5,17 L-4,17 L-4,14 L-1,14 L-1,13 L0,13 Z " fill="#BD997B" transform="translate(236,190)"/>
<path d="M0,0 L6,0 L6,15 L10,15 L10,18 L0,18 L0,15 L5,15 L5,1 L1,1 L1,6 L-5,6 L-5,11 L-15,11 L-15,15 L-19,15 L-19,11 L-16,11 L-16,10 L-15,10 L-15,6 L-6,6 L-6,5 L0,5 Z " fill="#9F6D50" transform="translate(368,482)"/>
<path d="M0,0 L10,0 L10,4 L15,4 L15,10 L36,10 L36,11 L14,11 L14,7 L13,7 L13,8 L12,8 L12,9 L11,9 L11,10 L12,10 L12,11 L10,11 L10,10 L4,10 L4,5 L0,5 Z " fill="#2D2A27" transform="translate(364,316)"/>
<path d="M0,0 L8,0 L8,4 L12,4 L12,32 L9,32 L9,8 L8,8 L8,7 L4,7 L4,3 L0,3 Z " fill="#271B0C" transform="translate(295,134)"/>
<path d="M0,0 L4,0 L4,30 L-2,30 L-2,31 L-3,31 L-3,29 L-1,29 L-1,28 L-2,28 L-2,27 L0,27 Z " fill="#171311" transform="translate(330,183)"/>
<path d="M0,0 L1,0 L1,5 L-5,5 L-5,7 L5,7 L5,8 L10,8 L10,14 L6,14 L6,19 L4,19 L4,20 L2,20 L2,25 L-5,25 L-5,28 L-1,28 L-1,32 L3,32 L3,41 L2,41 L2,33 L-2,33 L-2,29 L-6,29 L-6,23 L0,23 L0,19 L1,19 L1,18 L4,18 L4,12 L2,12 L2,10 L4,10 L4,8 L-6,8 L-6,4 L0,4 Z " fill="#E3CE96" transform="translate(348,142)"/>
<path d="M0,0 L13,0 L13,1 L1,1 L1,5 L2,5 L2,7 L3,7 L3,8 L5,8 L5,13 L9,13 L9,14 L10,14 L10,16 L12,16 L12,17 L11,17 L11,20 L17,20 L17,19 L26,19 L26,21 L19,21 L19,22 L18,22 L18,23 L17,23 L17,24 L16,24 L16,27 L17,27 L17,28 L18,28 L18,29 L17,29 L17,31 L16,31 L16,29 L13,29 L13,24 L9,24 L9,15 L8,15 L8,14 L4,14 L4,10 L0,10 Z " fill="#DEC57C" transform="translate(139,128)"/>
<path d="M0,0 L4,0 L4,14 L0,14 L0,19 L-5,19 L-5,5 L0,5 Z " fill="#B3896D" transform="translate(321,194)"/>
<path d="M0,0 L10,0 L10,3 L9,3 L9,4 L8,4 L8,5 L7,5 L7,6 L6,6 L6,7 L5,7 L5,10 L-10,10 L-10,5 L0,5 Z " fill="#E5D1BB" transform="translate(210,488)"/>
<path d="M0,0 L5,0 L5,10 L0,10 L0,20 L-5,20 L-5,5 L0,5 Z " fill="#191310" transform="translate(46,363)"/>
<path d="M0,0 L8,0 L8,11 L4,11 L4,6 L-7,6 L-7,16 L-18,16 L-18,11 L-17,11 L-17,15 L-8,15 L-8,5 L-11,5 L-11,4 L-13,4 L-13,3 L0,3 Z " fill="#604E40" transform="translate(294,183)"/>
<path d="M0,0 L2,0 L2,4 L11,4 L11,8 L8,8 L8,7 L9,7 L9,6 L6,6 L6,8 L5,8 L5,6 L2,6 L2,8 L1,8 L1,10 L2,10 L2,9 L5,9 L5,13 L2,13 L2,11 L-7,11 L-7,8 L-15,8 L-15,7 L-8,7 L-8,5 L-7,5 L-7,3 L1,3 L1,2 L0,2 Z " fill="#251F15" transform="translate(225,171)"/>
<path d="M0,0 L1,0 L1,8 L5,8 L5,11 L6,11 L6,13 L7,13 L7,14 L8,14 L8,15 L9,15 L9,16 L13,16 L13,15 L14,15 L14,14 L16,14 L16,12 L15,12 L15,11 L16,11 L16,9 L14,9 L14,8 L18,8 L18,18 L23,18 L23,22 L13,22 L13,18 L5,18 L5,17 L4,17 L4,9 L0,9 Z " fill="#E8D483" transform="translate(165,120)"/>
<path d="M0,0 L1,0 L1,5 L2,5 L2,6 L1,6 L1,7 L3,7 L3,9 L0,9 L0,6 L-3,6 L-3,15 L1,15 L1,16 L-3,16 L-3,21 L-4,21 L-4,16 L-9,16 L-9,21 L-14,21 L-14,36 L-9,36 L-9,37 L-19,37 L-19,78 L-20,78 L-20,36 L-15,36 L-15,20 L-10,20 L-10,15 L-4,15 L-4,5 L0,5 Z " fill="#8A8783" transform="translate(55,347)"/>
<path d="M0,0 L9,0 L9,5 L4,5 L4,8 L3,8 L3,9 L0,9 L0,11 L-1,11 L-1,14 L-9,14 L-9,9 L-4,9 L-4,5 L-2,5 L-2,4 L0,4 Z " fill="#E0C463" transform="translate(294,105)"/>
<path d="M0,0 L11,0 L11,3 L10,3 L10,5 L6,5 L6,11 L-5,11 L-5,5 L0,5 Z " fill="#E8DAC6" transform="translate(153,373)"/>
<path d="M0,0 L4,0 L4,8 L-1,8 L-1,14 L-5,14 L-5,23 L-6,23 L-6,17 L-7,17 L-7,14 L-8,14 L-8,15 L-9,15 L-9,14 L-15,14 L-15,13 L-10,13 L-10,9 L-5,9 L-5,4 L0,4 Z " fill="#2A1F18" transform="translate(293,257)"/>
<path d="M0,0 L7,0 L7,1 L4,1 L4,11 L5,11 L5,12 L8,12 L8,18 L5,18 L5,16 L4,16 L4,15 L1,15 L1,11 L-4,11 L-4,3 L-3,3 L-3,2 L0,2 Z " fill="#B98F73" transform="translate(260,188)"/>
<path d="M0,0 L9,0 L9,4 L5,4 L5,9 L-4,9 L-4,13 L-8,13 L-8,4 L0,4 Z " fill="#E0C565" transform="translate(320,115)"/>
<path d="M0,0 L1,0 L1,2 L-1,2 L-1,3 L-2,3 L-2,10 L-3,10 L-3,16 L-6,16 L-6,17 L-7,17 L-7,18 L-8,18 L-8,20 L-9,20 L-9,21 L-11,21 L-11,23 L-12,23 L-12,21 L-14,21 L-14,18 L-13,18 L-13,17 L-12,17 L-12,15 L-11,15 L-11,14 L-10,14 L-10,15 L-8,15 L-8,9 L-7,9 L-7,7 L-8,7 L-8,2 L-2,2 L-2,1 L0,1 Z " fill="#DAB15C" transform="translate(354,97)"/>
<path d="M0,0 L6,0 L6,21 L5,21 L5,5 L1,5 L1,16 L-25,16 L-25,21 L-29,21 L-29,20 L-31,20 L-31,15 L0,15 Z " fill="#7B5741" transform="translate(112,415)"/>
<path d="M0,0 L4,0 L4,40 L3,40 L3,25 L0,25 Z " fill="#0B0908" transform="translate(461,384)"/>
<path d="M0,0 L1,0 L1,2 L3,2 L3,4 L4,4 L4,14 L8,14 L8,18 L7,18 L7,19 L6,19 L6,18 L0,18 L0,14 L-1,14 L-1,13 L-8,13 L-8,9 L-1,9 L-1,8 L0,8 Z " fill="#996749" transform="translate(236,349)"/>
<path d="M0,0 L6,0 L6,5 L5,5 L5,1 L1,1 L1,11 L6,11 L6,26 L8,26 L8,27 L5,27 L5,13 L3,13 L3,14 L2,14 L2,16 L1,16 L1,40 L0,40 L0,12 L-1,12 L-1,13 L-3,13 L-3,14 L-4,14 L-4,29 L-5,29 L-5,18 L-6,18 L-6,13 L-5,13 L-5,10 L0,10 Z " fill="#E2CA86" transform="translate(169,62)"/>
<path d="M0,0 L11,0 L11,8 L12,8 L12,10 L10,10 L10,15 L0,15 L0,11 L7,11 L7,5 L6,5 L6,4 L0,4 Z " fill="#996649" transform="translate(343,457)"/>
<path d="M0,0 L10,0 L10,3 L11,3 L11,4 L12,4 L12,5 L16,5 L16,10 L20,10 L20,16 L15,16 L15,10 L10,10 L10,6 L9,6 L9,5 L0,5 Z " fill="#CBA483" transform="translate(399,342)"/>
<path d="M0,0 L14,0 L14,5 L8,5 L8,4 L-5,4 L-5,2 L-6,2 L-6,3 L-7,3 L-7,2 L-8,2 L-8,4 L-20,4 L-20,3 L-19,3 L-19,2 L-18,2 L-18,1 L0,1 Z " fill="#14130F" transform="translate(400,326)"/>
<path d="M0,0 L10,0 L10,13 L4,13 L4,9 L0,9 Z " fill="#CCAE8A" transform="translate(177,209)"/>
<path d="M0,0 L10,0 L10,4 L16,4 L16,10 L20,10 L20,15 L15,15 L15,10 L10,10 L10,5 L0,5 Z " fill="#342F29" transform="translate(425,337)"/>
<path d="M0,0 L1,0 L1,29 L5,29 L5,49 L1,49 L1,30 L-1,30 L-1,29 L0,29 Z " fill="#8E6D59" transform="translate(194,251)"/>
<path d="M0,0 L1,0 L1,52 L5,52 L5,57 L0,57 L0,53 L-5,53 L-5,23 L-4,23 L-4,52 L0,52 Z " fill="#655A54" transform="translate(312,228)"/>
<path d="M0,0 L10,0 L10,11 L0,11 Z " fill="#E8DBCB" transform="translate(235,389)"/>
<path d="M0,0 L15,0 L15,1 L16,1 L16,5 L20,5 L20,11 L15,11 L15,6 L14,6 L14,5 L0,5 Z " fill="#EADAC7" transform="translate(338,373)"/>
<path d="M0,0 L4,0 L4,9 L9,9 L9,19 L4,19 L4,17 L3,17 L3,14 L0,14 Z " fill="#E0C66B" transform="translate(191,91)"/>
<path d="M0,0 L4,0 L4,1 L5,1 L5,5 L7,5 L7,6 L9,6 L9,10 L10,10 L10,11 L20,11 L20,17 L9,17 L9,11 L4,11 L4,7 L3,7 L3,6 L4,6 L4,5 L3,5 L3,1 L0,1 Z " fill="#E8D8C4" transform="translate(329,310)"/>
<path d="M0,0 L1,0 L1,2 L2,2 L2,6 L4,6 L4,4 L8,4 L8,2 L9,2 L9,5 L5,5 L5,24 L0,24 Z " fill="#DBBF68" transform="translate(195,54)"/>
<path d="M0,0 L11,0 L11,1 L1,1 L1,6 L-4,6 L-4,12 L-30,12 L-30,16 L-9,16 L-9,17 L-30,17 L-30,22 L-40,22 L-40,21 L-31,21 L-31,16 L-45,16 L-45,15 L-31,15 L-31,11 L-5,11 L-5,5 L0,5 Z " fill="#806F63" transform="translate(127,315)"/>
<path d="M0,0 L7,0 L7,5 L6,5 L6,6 L5,6 L5,9 L6,9 L6,14 L5,14 L5,36 L13,36 L13,37 L4,37 L4,9 L-1,9 L-1,4 L-3,4 L-3,3 L-2,3 L-2,2 L0,2 Z " fill="#DCBB5C" transform="translate(304,129)"/>
<path d="M0,0 L23,0 L23,2 L16,2 L16,11 L6,11 L6,7 L10,7 L10,1 L0,1 Z " fill="#1B1816" transform="translate(208,187)"/>
<path d="M0,0 L25,0 L25,5 L5,5 L5,1 L0,1 Z " fill="#BC8F70" transform="translate(128,415)"/>
<path d="M0,0 L5,0 L5,21 L0,21 Z " fill="#C29777" transform="translate(210,331)"/>
<path d="M0,0 L1,0 L1,5 L11,5 L11,10 L10,10 L10,11 L-5,11 L-5,6 L-10,6 L-10,5 L0,5 Z " fill="#6B5C50" transform="translate(333,290)"/>
<path d="M0,0 L12,0 L12,1 L14,1 L14,2 L17,2 L17,12 L8,12 L8,8 L12,8 L12,3 L0,3 Z " fill="#191611" transform="translate(269,186)"/>
<path d="M0,0 L3,0 L3,4 L7,4 L7,12 L-8,12 L-8,13 L-9,13 L-9,11 L-10,11 L-10,10 L-3,10 L-3,5 L-2,5 L-2,4 L-1,4 L-1,3 L1,3 L1,1 L0,1 Z " fill="#D8BE67" transform="translate(343,171)"/>
<path d="M0,0 L1,0 L1,41 L6,41 L6,46 L11,46 L11,47 L10,47 L10,48 L9,48 L9,47 L6,47 L6,57 L11,57 L11,62 L10,62 L10,58 L5,58 L5,47 L0,47 Z " fill="#706B63" transform="translate(465,384)"/>
<path d="M0,0 L8,0 L8,1 L9,1 L9,16 L4,16 L4,25 L0,25 L0,24 L1,24 L1,23 L2,23 L2,15 L8,15 L8,2 L0,2 L0,6 L4,6 L4,11 L1,11 L1,12 L0,12 L0,16 L-4,16 L-4,15 L-1,15 L-1,7 L-4,7 L-4,6 L-1,6 L-1,2 L-4,2 L-4,1 L0,1 Z " fill="#E0CA85" transform="translate(353,113)"/>
<path d="M0,0 L5,0 L5,31 L10,31 L10,32 L4,32 L4,13 L3,13 L3,14 L2,14 L2,15 L1,15 L1,16 L2,16 L2,17 L1,17 L1,22 L0,22 Z " fill="#C09675" transform="translate(440,389)"/>
<path d="M0,0 L1,0 L1,2 L6,2 L6,3 L1,3 L1,8 L-4,8 L-4,18 L-9,18 L-9,17 L-10,17 L-10,8 L-5,8 L-5,2 L0,2 Z " fill="#C59D7E" transform="translate(81,360)"/>
<path d="M0,0 L5,0 L5,4 L11,4 L11,5 L12,5 L12,11 L2,11 L2,10 L0,10 Z " fill="#AF7F60" transform="translate(338,457)"/>
<path d="M0,0 L20,0 L20,5 L0,5 Z " fill="#976A4C" transform="translate(225,493)"/>
<path d="M0,0 L9,0 L9,5 L15,5 L15,10 L4,10 L4,5 L0,5 Z " fill="#956446" transform="translate(144,488)"/>
<path d="M0,0 L5,0 L5,16 L1,16 L1,17 L0,17 L0,19 L-3,19 L-3,21 L-5,21 L-5,16 L0,16 Z " fill="#BB9171" transform="translate(25,472)"/>
<path d="M0,0 L5,0 L5,5 L15,5 L15,10 L0,10 Z " fill="#C08F6E" transform="translate(174,337)"/>
<path d="M0,0 L20,0 L20,5 L0,5 Z " fill="#886D5C" transform="translate(118,331)"/>
<path d="M0,0 L4,0 L4,26 L3,26 L3,24 L2,24 L2,25 L0,25 Z " fill="#17130D" transform="translate(167,183)"/>
<path d="M0,0 L1,0 L1,1 L8,1 L8,2 L0,2 L0,5 L-25,5 L-25,4 L-22,4 L-22,1 L0,1 Z " fill="#C4A582" transform="translate(294,181)"/>
<path d="M0,0 L21,0 L21,5 L4,5 L4,4 L1,4 L1,3 L0,3 Z " fill="#DCBA5D" transform="translate(312,78)"/>
<path d="M0,0 L24,0 L24,15 L28,15 L28,20 L18,20 L18,19 L23,19 L23,1 L1,1 L1,10 L-3,10 L-3,9 L-4,9 L-4,4 L0,4 Z " fill="#DEC57B" transform="translate(247,29)"/>
<path d="M0,0 L5,0 L5,8 L-4,8 L-4,7 L-6,7 L-6,9 L-7,9 L-7,10 L-8,10 L-8,8 L-9,8 L-9,18 L-4,18 L-4,26 L-5,26 L-5,19 L-10,19 L-10,6 L-5,6 L-5,5 L-3,5 L-3,3 L-2,3 L-2,1 L0,1 Z " fill="#D3B293" transform="translate(480,474)"/>
<path d="M0,0 L3,0 L3,1 L4,1 L4,0 L5,0 L5,5 L10,5 L10,15 L5,15 L5,10 L0,10 Z " fill="#1A1815" transform="translate(471,431)"/>
<path d="M0,0 L1,0 L1,4 L-3,4 L-3,15 L-2,15 L-2,26 L-6,26 L-6,1 L0,1 Z " fill="#D4BB92" transform="translate(178,182)"/>
<path d="M0,0 L5,0 L5,5 L10,5 L10,13 L9,13 L9,14 L7,14 L7,15 L6,15 L6,17 L5,17 L5,10 L0,10 Z " fill="#DBBB96" transform="translate(455,457)"/>
<path d="M0,0 L6,0 L6,1 L5,1 L5,2 L6,2 L6,15 L5,15 L5,16 L1,16 L1,20 L0,20 Z " fill="#AA846A" transform="translate(282,280)"/>
<path d="M0,0 L4,0 L4,24 L2,24 L2,25 L1,25 L1,24 L0,24 Z " fill="#EADBCB" transform="translate(415,442)"/>
<path d="M0,0 L5,0 L5,4 L15,4 L15,0 L16,0 L16,4 L72,4 L72,5 L0,5 Z " fill="#7E6351" transform="translate(271,478)"/>
<path d="M0,0 L9,0 L9,4 L4,4 L4,5 L3,5 L3,9 L-11,9 L-11,5 L0,5 Z " fill="#18110B" transform="translate(226,473)"/>
<path d="M0,0 L15,0 L15,4 L9,4 L9,8 L0,8 Z " fill="#D5AF58" transform="translate(333,142)"/>
<path d="M0,0 L13,0 L13,5 L17,5 L17,8 L9,8 L9,4 L4,4 L4,8 L0,8 Z " fill="#2B200F" transform="translate(200,129)"/>
<path d="M0,0 L5,0 L5,11 L1,11 L1,47 L0,47 L0,11 L-3,11 L-3,10 L-1,10 L-1,9 L0,9 Z " fill="#C59B7A" transform="translate(66,378)"/>
<path d="M0,0 L6,0 L6,5 L11,5 L11,9 L12,9 L12,10 L13,10 L13,11 L5,11 L5,6 L-20,6 L-20,5 L0,5 Z " fill="#AE8262" transform="translate(138,331)"/>
<path d="M0,0 L1,0 L1,8 L8,8 L8,6 L9,6 L9,8 L13,8 L13,9 L14,9 L14,13 L17,13 L17,23 L15,23 L15,24 L13,24 L13,14 L9,14 L9,13 L8,13 L8,10 L7,10 L7,9 L0,9 Z " fill="#DFC66F" transform="translate(161,96)"/>
<path d="M0,0 L4,0 L4,15 L-1,15 L-1,17 L-5,17 L-5,10 L0,10 Z " fill="#B98E6F" transform="translate(41,483)"/>
<path d="M0,0 L30,0 L30,1 L27,1 L27,2 L23,2 L23,3 L22,3 L22,4 L18,4 L18,3 L17,3 L17,4 L16,4 L16,3 L15,3 L15,4 L14,4 L14,3 L13,3 L13,4 L12,4 L12,3 L7,3 L7,4 L6,4 L6,3 L5,3 L5,4 L2,4 L2,3 L1,3 L1,4 L0,4 Z " fill="#B98769" transform="translate(313,352)"/>
<path d="M0,0 L5,0 L5,4 L4,4 L4,5 L3,5 L3,6 L1,6 L1,21 L10,21 L10,26 L0,26 Z " fill="#BC8E6F" transform="translate(297,326)"/>
<path d="M0,0 L5,0 L5,5 L4,5 L4,6 L1,6 L1,7 L0,7 L0,9 L1,9 L1,15 L-5,15 L-5,16 L-7,16 L-7,19 L-4,19 L-4,20 L-8,20 L-8,25 L-12,25 L-12,19 L-8,19 L-8,15 L-6,15 L-6,14 L-3,14 L-3,13 L-1,13 L-1,14 L0,14 L0,11 L-2,11 L-2,9 L-3,9 L-3,6 L0,6 Z " fill="#E2CA73" transform="translate(315,58)"/>
<path d="M0,0 L1,0 L1,25 L4,25 L4,40 L5,40 L5,41 L0,41 Z " fill="#1F1510" transform="translate(460,384)"/>
<path d="M0,0 L15,0 L15,4 L10,4 L10,9 L4,9 L4,4 L0,4 Z " fill="#EBDECC" transform="translate(149,322)"/>
<path d="M0,0 L4,0 L4,16 L0,16 L0,11 L-1,11 L-1,5 L-5,5 L-5,1 L0,1 Z " fill="#A07154" transform="translate(226,305)"/>
<path d="M0,0 L4,0 L4,11 L9,11 L9,15 L10,15 L10,20 L9,20 L9,16 L4,16 L4,15 L0,15 Z " fill="#C09979" transform="translate(226,290)"/>
<path d="M0,0 L14,0 L14,24 L17,24 L17,19 L22,19 L22,20 L18,20 L18,26 L19,26 L19,27 L18,27 L18,28 L21,28 L21,27 L22,27 L22,30 L9,30 L9,29 L13,29 L13,1 L0,1 Z " fill="#DEC585" transform="translate(289,29)"/>
<path d="M0,0 L6,0 L6,1 L3,1 L3,2 L2,2 L2,3 L1,3 L1,6 L0,6 L0,10 L-15,10 L-15,5 L0,5 Z " fill="#E4D0B5" transform="translate(287,358)"/>
<path d="M0,0 L4,0 L4,2 L15,2 L15,0 L20,0 L20,3 L18,3 L18,6 L13,6 L13,7 L12,7 L12,6 L10,6 L10,5 L9,5 L9,6 L8,6 L8,7 L5,7 L5,6 L2,6 L2,3 L0,3 Z " fill="#735842" transform="translate(241,228)"/>
<path d="M0,0 L4,0 L4,10 L6,10 L6,11 L7,11 L7,12 L8,12 L8,19 L6,19 L6,16 L5,16 L5,15 L0,15 Z " fill="#E7DBCB" transform="translate(420,467)"/>
<path d="M0,0 L1,0 L1,9 L4,9 L4,10 L5,10 L5,14 L9,14 L9,15 L10,15 L10,18 L16,18 L16,15 L14,15 L14,14 L18,14 L18,19 L9,19 L9,17 L6,17 L6,15 L4,15 L4,18 L0,18 L0,11 L-2,11 L-2,9 L0,9 Z " fill="#E1C972" transform="translate(178,110)"/>
<path d="M0,0 L6,0 L6,5 L4,5 L4,1 L2,1 L2,9 L3,9 L3,10 L7,10 L7,9 L8,9 L8,8 L9,8 L9,15 L8,15 L8,19 L10,19 L10,24 L9,24 L9,21 L5,21 L5,11 L0,11 Z " fill="#DFC88A" transform="translate(143,104)"/>
<path d="M0,0 L16,0 L16,10 L12,10 L12,11 L11,11 L11,14 L8,14 L8,15 L7,15 L7,20 L6,20 L6,13 L7,13 L7,11 L8,11 L8,10 L11,10 L11,9 L12,9 L12,5 L13,5 L13,3 L14,3 L14,1 L2,1 L2,4 L3,4 L3,6 L-3,6 L-3,5 L0,5 Z " fill="#E6D283" transform="translate(248,34)"/>
<path d="M0,0 L5,0 L5,1 L6,1 L6,6 L1,6 L1,13 L-5,13 L-5,3 L-3,3 L-3,4 L-4,4 L-4,5 L0,5 Z " fill="#E5D2BC" transform="translate(76,487)"/>
<path d="M0,0 L5,0 L5,17 L0,17 Z " fill="#B68B6C" transform="translate(460,483)"/>
<path d="M0,0 L6,0 L6,5 L15,5 L15,10 L5,10 L5,6 L0,6 Z " fill="#38271B" transform="translate(271,472)"/>
<path d="M0,0 L5,0 L5,15 L10,15 L10,16 L0,16 Z " fill="#BE9877" transform="translate(455,467)"/>
<path d="M0,0 L2,0 L2,1 L1,1 L1,33 L-10,33 L-10,32 L-11,32 L-11,17 L-10,17 L-10,27 L-9,27 L-9,26 L-8,26 L-8,27 L-5,27 L-5,32 L0,32 Z " fill="#CAA37F" transform="translate(61,388)"/>
<path d="M0,0 L5,0 L5,5 L10,5 L10,10 L5,10 L5,20 L4,20 L4,10 L0,10 Z " fill="#AF8262" transform="translate(303,332)"/>
<path d="M0,0 L5,0 L5,2 L6,2 L6,4 L8,4 L8,5 L6,5 L6,10 L15,10 L15,15 L5,15 L5,5 L0,5 Z " fill="#BE9173" transform="translate(189,337)"/>
<path d="M0,0 L4,0 L4,4 L1,4 L1,9 L5,9 L5,10 L1,10 L1,14 L-4,14 L-4,11 L-15,11 L-15,9 L0,9 L0,4 L-5,4 L-5,3 L-4,3 L-4,1 L0,1 Z " fill="#6B5A4B" transform="translate(276,242)"/>
<path d="M0,0 L2,0 L2,1 L4,1 L4,4 L3,4 L3,9 L-4,9 L-4,8 L-6,8 L-6,7 L-7,7 L-7,9 L-8,9 L-8,7 L-9,7 L-9,6 L-8,6 L-8,5 L-9,5 L-9,2 L0,2 Z " fill="#18130D" transform="translate(287,169)"/>
<path d="M0,0 L1,0 L1,24 L-3,24 L-3,32 L0,32 L0,28 L1,28 L1,33 L-3,33 L-3,70 L-4,70 L-4,33 L-7,33 L-7,32 L-4,32 L-4,23 L0,23 Z " fill="#7C6B47" transform="translate(191,138)"/>
<path d="M0,0 L5,0 L5,1 L4,1 L4,3 L5,3 L5,4 L6,4 L6,24 L12,24 L12,12 L13,12 L13,9 L16,9 L16,5 L21,5 L21,6 L17,6 L17,10 L14,10 L14,24 L13,24 L13,25 L5,25 L5,5 L1,5 L1,1 L0,1 Z " fill="#E6D079" transform="translate(234,95)"/>
<path d="M0,0 L4,0 L4,20 L-1,20 L-1,16 L0,16 Z " fill="#BA8B6D" transform="translate(288,332)"/>
<path d="M0,0 L4,0 L4,4 L9,4 L9,9 L13,9 L13,14 L12,14 L12,12 L9,12 L9,11 L7,11 L7,6 L4,6 L4,9 L5,9 L5,10 L4,10 L4,22 L6,22 L6,23 L7,23 L7,24 L3,24 L3,9 L1,9 L1,4 L2,4 L2,3 L0,3 Z " fill="#2D1E14" transform="translate(213,266)"/>
<path d="M0,0 L1,0 L1,47 L4,47 L4,48 L1,48 L1,52 L-5,52 L-5,47 L-4,47 L-4,46 L0,46 Z " fill="#67564C" transform="translate(189,233)"/>
<path d="M0,0 L5,0 L5,13 L1,13 L1,17 L-3,17 L-3,12 L0,12 Z " fill="#E2CC72" transform="translate(293,83)"/>
<path d="M0,0 L5,0 L5,4 L9,4 L9,12 L11,12 L11,13 L5,13 L5,9 L0,9 Z " fill="#20170E" transform="translate(204,257)"/>
<path d="M0,0 L1,0 L1,4 L3,4 L3,21 L4,21 L4,28 L0,28 Z " fill="#110F0E" transform="translate(190,252)"/>
<path d="M0,0 L13,0 L13,4 L17,4 L17,7 L4,7 L4,6 L5,6 L5,3 L3,3 L3,2 L1,2 L1,4 L0,4 Z " fill="#2E241A" transform="translate(286,167)"/>
<path d="M0,0 L1,0 L1,2 L2,2 L2,3 L-2,3 L-2,4 L-3,4 L-3,6 L-2,6 L-2,7 L1,7 L1,8 L-3,8 L-3,13 L-8,13 L-8,16 L-11,16 L-11,8 L-7,8 L-7,3 L-3,3 L-3,2 L-1,2 L-1,1 L0,1 Z " fill="#DAB85F" transform="translate(194,46)"/>
<path d="M0,0 L2,0 L2,1 L32,1 L32,6 L31,6 L31,2 L6,2 L6,6 L-4,6 L-4,1 L0,1 Z " fill="#976F56" transform="translate(81,435)"/>
<path d="M0,0 L1,0 L1,5 L-3,5 L-3,8 L2,8 L2,9 L-3,9 L-3,10 L-4,10 L-4,14 L-13,14 L-13,10 L-14,10 L-14,9 L-16,9 L-16,10 L-17,10 L-17,14 L-18,14 L-18,9 L-17,9 L-17,8 L-14,8 L-14,5 L-13,5 L-13,9 L-5,9 L-5,6 L-4,6 L-4,4 L-1,4 L-1,3 L0,3 Z " fill="#E6D076" transform="translate(298,110)"/>
<path d="M0,0 L7,0 L7,1 L8,1 L8,5 L3,5 L3,10 L-5,10 L-5,5 L-3,5 L-3,4 L0,4 Z " fill="#D9B661" transform="translate(281,34)"/>
<path d="M0,0 L5,0 L5,5 L14,5 L14,6 L15,6 L15,10 L14,10 L14,9 L13,9 L13,8 L12,8 L12,7 L9,7 L9,8 L6,8 L6,10 L0,10 Z " fill="#DDC4A3" transform="translate(318,311)"/>
<path d="M0,0 L1,0 L1,9 L5,9 L5,10 L1,10 L1,25 L0,25 L0,10 L-4,10 L-4,24 L-5,24 L-5,25 L-7,25 L-7,26 L-8,26 L-8,28 L-9,28 L-9,30 L-10,30 L-10,24 L-9,24 L-9,20 L-7,20 L-7,19 L-5,19 L-5,9 L-1,9 L-1,8 L0,8 Z " fill="#B28363" transform="translate(302,291)"/>
<path d="M0,0 L46,0 L46,4 L31,4 L31,3 L42,3 L42,1 L27,1 L27,2 L26,2 L26,1 L1,1 L1,3 L9,3 L9,4 L0,4 Z " fill="#D8D0CA" transform="translate(230,247)"/>
<path d="M0,0 L6,0 L6,2 L11,2 L11,8 L6,8 L6,3 L2,3 L2,7 L-5,7 L-5,2 L0,2 Z " fill="#BD987D" transform="translate(281,235)"/>
<path d="M0,0 L16,0 L16,5 L0,5 Z " fill="#E9D7C2" transform="translate(292,493)"/>
<path d="M0,0 L20,0 L20,4 L0,4 Z " fill="#BC9378" transform="translate(399,437)"/>
<path d="M0,0 L4,0 L4,5 L10,5 L10,11 L0,11 Z " fill="#A26D50" transform="translate(118,410)"/>
<path d="M0,0 L1,0 L1,4 L20,4 L20,5 L1,5 L1,10 L21,10 L21,26 L20,26 L20,11 L0,11 L0,6 L-15,6 L-15,5 L0,5 Z " fill="#D1AB89" transform="translate(358,410)"/>
<path d="M0,0 L16,0 L16,5 L0,5 Z " fill="#C09476" transform="translate(153,410)"/>
<path d="M0,0 L3,0 L3,5 L5,5 L5,6 L8,6 L8,8 L9,8 L9,10 L7,10 L7,11 L8,11 L8,12 L4,12 L4,11 L3,11 L3,17 L2,17 L2,16 L0,16 L0,4 L1,4 L1,3 L0,3 Z " fill="#191512" transform="translate(217,272)"/>
<path d="M0,0 L20,0 L20,4 L0,4 Z " fill="#BA9176" transform="translate(240,266)"/>
<path d="M0,0 L1,0 L1,4 L3,4 L3,5 L16,5 L16,8 L17,8 L17,9 L19,9 L19,10 L20,10 L20,16 L4,16 L4,13 L3,13 L3,11 L-5,11 L-5,10 L4,10 L4,11 L5,11 L5,13 L7,13 L7,14 L8,14 L8,15 L17,15 L17,14 L18,14 L18,12 L19,12 L19,11 L16,11 L16,10 L15,10 L15,6 L0,6 Z " fill="#E4D1B7" transform="translate(225,415)"/>
<path d="M0,0 L1,0 L1,1 L6,1 L6,16 L1,16 L1,5 L0,5 L0,3 L1,3 L1,2 L0,2 Z " fill="#17130E" transform="translate(454,367)"/>
<path d="M0,0 L5,0 L5,11 L8,11 L8,12 L7,12 L7,14 L5,14 L5,16 L0,16 L0,11 L-5,11 L-5,6 L-4,6 L-4,10 L2,10 L2,11 L3,11 L3,10 L4,10 L4,6 L0,6 Z " fill="#A87858" transform="translate(240,357)"/>
<path d="M0,0 L5,0 L5,4 L6,4 L6,5 L13,5 L13,4 L15,4 L15,10 L5,10 L5,5 L0,5 Z " fill="#29251F" transform="translate(318,285)"/>
<path d="M0,0 L1,0 L1,10 L6,10 L6,15 L5,15 L5,11 L1,11 L1,12 L0,12 L0,13 L-1,13 L-1,14 L1,14 L1,15 L-4,15 L-4,36 L-9,36 L-9,48 L-10,48 L-10,35 L-5,35 L-5,14 L-4,14 L-4,13 L-2,13 L-2,8 L-1,8 L-1,9 L0,9 Z " fill="#39261B" transform="translate(132,452)"/>
<path d="M0,0 L4,0 L4,4 L5,4 L5,5 L13,5 L13,9 L14,9 L14,10 L12,10 L12,8 L11,8 L11,9 L0,9 L0,3 L-2,3 L-2,2 L-1,2 L-1,1 L0,1 Z " fill="#19110C" transform="translate(133,463)"/>
<path d="M0,0 L10,0 L10,5 L4,5 L4,9 L-1,9 L-1,8 L-4,8 L-4,7 L-1,7 L-1,6 L-5,6 L-5,5 L0,5 Z " fill="#130E0B" transform="translate(128,316)"/>
<path d="M0,0 L3,0 L3,16 L8,16 L8,17 L9,17 L9,20 L11,20 L11,13 L10,13 L10,12 L9,12 L9,11 L7,11 L7,1 L8,1 L8,10 L13,10 L13,21 L12,21 L12,22 L8,22 L8,21 L7,21 L7,17 L2,17 L2,1 L0,1 Z " fill="#E3D0B8" transform="translate(417,466)"/>
<path d="M0,0 L4,0 L4,19 L0,19 Z " fill="#E8DBCC" transform="translate(87,447)"/>
<path d="M0,0 L5,0 L5,10 L4,10 L4,12 L5,12 L5,13 L4,13 L4,15 L5,15 L5,16 L0,16 Z " fill="#251F1D" transform="translate(450,357)"/>
<path d="M0,0 L2,0 L2,5 L32,5 L32,10 L28,10 L28,9 L20,9 L20,7 L21,7 L21,6 L1,6 L1,1 L0,1 Z " fill="#B6866A" transform="translate(157,347)"/>
<path d="M0,0 L1,0 L1,15 L5,15 L5,21 L1,21 L1,23 L0,23 L0,21 L-3,21 L-3,20 L-4,20 L-4,16 L-5,16 L-5,10 L-4,10 L-4,15 L0,15 Z " fill="#C09777" transform="translate(230,306)"/>
<path d="M0,0 L5,0 L5,4 L9,4 L9,1 L10,1 L10,5 L5,5 L5,13 L2,13 L2,16 L1,16 L1,13 L0,13 Z " fill="#BA9C80" transform="translate(255,174)"/>
<path d="M0,0 L6,0 L6,4 L5,4 L5,2 L4,2 L4,3 L3,3 L3,4 L1,4 L1,5 L-3,5 L-3,10 L-7,10 L-7,18 L-4,18 L-4,15 L-3,15 L-3,19 L-7,19 L-7,32 L-8,32 L-8,19 L-11,19 L-11,24 L-15,24 L-15,23 L-12,23 L-12,18 L-8,18 L-8,9 L-4,9 L-4,4 L0,4 Z " fill="#E0CB91" transform="translate(190,44)"/>
<path d="M0,0 L9,0 L9,1 L10,1 L10,15 L14,15 L14,16 L8,16 L8,2 L2,2 L2,3 L1,3 L1,7 L-3,7 L-3,9 L-4,9 L-4,11 L-5,11 L-5,6 L-4,6 L-4,5 L-1,5 L-1,1 L0,1 Z " fill="#E3CB95" transform="translate(217,28)"/>
<path d="M0,0 L5,0 L5,9 L10,9 L10,12 L0,12 Z " fill="#E8DAC9" transform="translate(430,488)"/>
<path d="M0,0 L1,0 L1,1 L6,1 L6,2 L1,2 L1,5 L0,5 L0,16 L-3,16 L-3,15 L-4,15 L-4,16 L-6,16 L-6,13 L-4,13 L-4,1 L0,1 Z " fill="#8F6347" transform="translate(459,424)"/>
<path d="M0,0 L15,0 L15,5 L0,5 Z " fill="#BE9576" transform="translate(343,410)"/>
<path d="M0,0 L14,0 L14,5 L24,5 L24,6 L17,6 L17,10 L24,10 L24,11 L14,11 L14,10 L9,10 L9,5 L13,5 L13,1 L0,1 Z " fill="#AD8164" transform="translate(211,352)"/>
<path d="M0,0 L5,0 L5,10 L-5,10 L-5,5 L0,5 Z " fill="#AC8066" transform="translate(133,321)"/>
<path d="M0,0 L5,0 L5,5 L0,5 L0,9 L-10,9 L-10,4 L0,4 Z " fill="#A97A5B" transform="translate(256,311)"/>
<path d="M0,0 L5,0 L5,15 L0,15 Z " fill="#9F7152" transform="translate(272,306)"/>
<path d="M0,0 L3,0 L3,2 L4,2 L4,0 L7,0 L7,1 L6,1 L6,2 L12,2 L12,9 L5,9 L5,7 L3,7 L3,3 L0,3 L0,4 L-1,4 L-1,2 L0,2 Z " fill="#16110C" transform="translate(227,177)"/>
<path d="M0,0 L9,0 L9,4 L13,4 L13,14 L4,14 L4,13 L11,13 L11,12 L12,12 L12,6 L10,6 L10,7 L9,7 L9,10 L-5,10 L-5,5 L-4,5 L-4,9 L6,9 L6,8 L8,8 L8,1 L4,1 L4,4 L0,4 Z " fill="#E5CE76" transform="translate(316,124)"/>
<path d="M0,0 L1,0 L1,19 L2,19 L2,21 L-2,21 L-2,22 L-3,22 L-3,9 L-2,9 L-2,4 L-1,4 L-1,3 L-2,3 L-2,2 L-1,2 L-1,1 L0,1 Z " fill="#BB8D6E" transform="translate(443,402)"/>
<path d="M0,0 L5,0 L5,1 L1,1 L1,12 L2,12 L2,10 L3,10 L3,7 L4,7 L4,6 L5,6 L5,21 L0,21 Z " fill="#D3B38E" transform="translate(256,378)"/>
<path d="M0,0 L4,0 L4,5 L-1,5 L-1,6 L-2,6 L-2,7 L-4,7 L-4,10 L-12,10 L-12,8 L-11,8 L-11,4 L0,4 Z " fill="#84705D" transform="translate(190,281)"/>
<path d="M0,0 L1,0 L1,1 L3,1 L3,2 L5,2 L5,1 L7,1 L7,0 L8,0 L8,2 L7,2 L7,4 L6,4 L6,9 L1,9 L1,10 L-1,10 L-1,11 L-2,11 L-2,1 L0,1 Z " fill="#130F0C" transform="translate(387,437)"/>
<path d="M0,0 L1,0 L1,1 L5,1 L5,12 L1,12 L1,28 L0,28 Z " fill="#C9A17F" transform="translate(287,320)"/>
<path d="M0,0 L4,0 L4,10 L-1,10 L-1,14 L-4,14 L-4,5 L0,5 Z " fill="#CDB290" transform="translate(321,208)"/>
<path d="M0,0 L4,0 L4,5 L3,5 L3,6 L2,6 L2,8 L3,8 L3,7 L4,7 L4,6 L8,6 L8,14 L2,14 L2,13 L1,13 L1,3 L0,3 Z " fill="#B18468" transform="translate(175,194)"/>
<path d="M0,0 L5,0 L5,5 L0,5 L0,19 L-4,19 L-4,5 L-3,5 L-3,4 L4,4 L4,1 L0,1 Z " fill="#2E2218" transform="translate(316,194)"/>
<path d="M0,0 L4,0 L4,18 L0,18 Z " fill="#D2B794" transform="translate(325,190)"/>
<path d="M0,0 L7,0 L7,7 L-2,7 L-2,8 L-3,8 L-3,9 L-5,9 L-5,4 L-1,4 L-1,1 L0,1 Z " fill="#C7A67E" transform="translate(322,183)"/>
<path d="M0,0 L8,0 L8,5 L13,5 L13,9 L4,9 L4,4 L0,4 Z " fill="#2D2414" transform="translate(268,129)"/>
<path d="M0,0 L13,0 L13,2 L0,2 L0,10 L4,10 L4,6 L9,6 L9,9 L8,9 L8,8 L7,8 L7,9 L6,9 L6,11 L-8,11 L-8,9 L-1,9 L-1,1 L0,1 Z " fill="#B6A163" transform="translate(200,127)"/>
<path d="M0,0 L5,0 L5,1 L2,1 L2,10 L1,10 L1,12 L0,12 L0,13 L-1,13 L-1,15 L8,15 L8,11 L9,11 L9,16 L0,16 L0,20 L-4,20 L-4,11 L0,11 Z " fill="#E1C96F" transform="translate(289,48)"/>
<path d="M0,0 L6,0 L6,5 L11,5 L11,6 L-2,6 L-2,8 L-3,8 L-3,9 L-4,9 L-4,10 L-9,10 L-9,6 L-5,6 L-5,5 L0,5 Z " fill="#B98D6D" transform="translate(250,462)"/>
<path d="M0,0 L10,0 L10,5 L20,5 L20,6 L10,6 L10,7 L9,7 L9,6 L0,6 Z " fill="#E6D5BE" transform="translate(225,383)"/>
<path d="M0,0 L4,0 L4,7 L2,7 L2,8 L-8,8 L-8,4 L-9,4 L-9,3 L0,3 Z " fill="#EBDC8D" transform="translate(320,125)"/>
<path d="M0,0 L1,0 L1,2 L3,2 L3,10 L-4,10 L-4,13 L-3,13 L-3,14 L0,14 L0,15 L-5,15 L-5,9 L-8,9 L-8,6 L-6,6 L-6,5 L0,5 Z " fill="#DEBF68" transform="translate(316,68)"/>
<path d="M0,0 L10,0 L10,1 L6,1 L6,2 L8,2 L8,3 L7,3 L7,7 L6,7 L6,10 L15,10 L15,11 L6,11 L6,16 L5,16 L5,11 L0,11 L0,10 L5,10 L5,6 L0,6 Z " fill="#AA795E" transform="translate(138,477)"/>
<path d="M0,0 L4,0 L4,9 L-2,9 L-2,13 L-6,13 L-6,8 L-3,8 L-3,4 L0,4 Z " fill="#443223" transform="translate(283,238)"/>
<path d="M0,0 L2,0 L2,1 L3,1 L3,10 L-7,10 L-7,8 L-6,8 L-6,5 L-5,5 L-5,4 L-1,4 L-1,1 L0,1 Z " fill="#AB795C" transform="translate(345,490)"/>
<path d="M0,0 L1,0 L1,11 L5,11 L5,16 L1,16 L1,26 L0,26 L0,21 L-4,21 L-4,16 L-2,16 L-2,15 L-1,15 L-1,14 L0,14 Z " fill="#C69A7B" transform="translate(302,316)"/>
<path d="M0,0 L1,0 L1,2 L7,2 L7,11 L2,11 L2,7 L-2,7 L-2,1 L0,1 Z " fill="#201D1B" transform="translate(169,207)"/>
<path d="M0,0 L7,0 L7,5 L6,5 L6,6 L4,6 L4,8 L3,8 L3,9 L2,9 L2,10 L1,10 L1,11 L-4,11 L-4,10 L0,10 L0,8 L1,8 L1,5 L-10,5 L-10,3 L-8,3 L-8,4 L0,4 Z " fill="#DFC9AA" transform="translate(163,368)"/>
<path d="M0,0 L1,0 L1,4 L5,4 L5,5 L4,5 L4,6 L3,6 L3,7 L15,7 L15,5 L16,5 L16,6 L17,6 L17,5 L18,5 L18,7 L31,7 L31,8 L-3,8 L-3,4 L-1,4 L-1,3 L-2,3 L-2,2 L-1,2 L-1,1 L0,1 Z " fill="#1E160F" transform="translate(377,323)"/>
<path d="M0,0 L5,0 L5,2 L3,2 L3,3 L4,3 L4,4 L2,4 L2,6 L3,6 L3,5 L9,5 L9,6 L5,6 L5,11 L0,11 L0,14 L-4,14 L-4,10 L0,10 Z " fill="#393227" transform="translate(325,208)"/>
<path d="M0,0 L13,0 L13,1 L1,1 L1,4 L4,4 L4,8 L-9,8 L-9,4 L0,4 Z " fill="#AB8C6E" transform="translate(290,174)"/>
<path d="M0,0 L4,0 L4,16 L0,16 L0,14 L1,14 L1,10 L-1,10 L-1,7 L1,7 L1,6 L-1,6 L-1,1 L0,1 Z " fill="#A77556" transform="translate(257,362)"/>
<path d="M0,0 L5,0 L5,9 L8,9 L8,5 L9,5 L9,9 L13,9 L13,10 L9,10 L9,15 L8,15 L8,10 L0,10 Z " fill="#A58870" transform="translate(312,213)"/>
<path d="M0,0 L2,0 L2,1 L6,1 L6,5 L11,5 L11,9 L1,9 L1,4 L0,4 L0,3 L-1,3 L-1,1 L0,1 Z " fill="#EADA8D" transform="translate(168,147)"/>
<path d="M0,0 L4,0 L4,4 L5,4 L5,5 L6,5 L6,8 L8,8 L8,14 L5,14 L5,10 L0,10 Z " fill="#D8B55F" transform="translate(170,63)"/>
<path d="M0,0 L4,0 L4,10 L0,10 L0,11 L-12,11 L-12,5 L-11,5 L-11,10 L-1,10 L-1,1 L0,1 Z " fill="#CAA080" transform="translate(257,352)"/>
<path d="M0,0 L1,0 L1,3 L2,3 L2,2 L3,2 L3,18 L-1,18 L-1,1 L0,1 Z " fill="#A87959" transform="translate(268,329)"/>
<path d="M0,0 L6,0 L6,6 L4,6 L4,7 L3,7 L3,10 L5,10 L5,11 L4,11 L4,13 L2,13 L2,15 L0,15 Z " fill="#CBA585" transform="translate(138,316)"/>
<path d="M0,0 L4,0 L4,1 L5,1 L5,5 L6,5 L6,6 L9,6 L9,10 L10,10 L10,15 L20,15 L20,16 L9,16 L9,11 L5,11 L5,10 L4,10 L4,5 L0,5 Z " fill="#B48968" transform="translate(236,305)"/>
<path d="M0,0 L1,0 L1,4 L4,4 L4,0 L9,0 L9,4 L17,4 L17,5 L9,5 L9,8 L18,8 L18,9 L8,9 L8,5 L5,5 L5,9 L-4,9 L-4,8 L4,8 L4,5 L0,5 Z " fill="#71613B" transform="translate(213,129)"/>
<path d="M0,0 L13,0 L13,23 L12,23 L12,2 L10,2 L10,3 L9,3 L9,4 L0,4 Z " fill="#D7B76A" transform="translate(289,30)"/>
<path d="M0,0 L6,0 L6,5 L10,5 L10,11 L8,11 L8,12 L7,12 L7,13 L5,13 L5,5 L0,5 Z " fill="#BE9978" transform="translate(460,457)"/>
<path d="M0,0 L4,0 L4,5 L9,5 L9,10 L0,10 Z " fill="#DBB792" transform="translate(298,337)"/>
<path d="M0,0 L4,0 L4,10 L-5,10 L-5,5 L0,5 Z " fill="#D9B691" transform="translate(200,337)"/>
<path d="M0,0 L4,0 L4,5 L9,5 L9,10 L0,10 Z " fill="#AC7F65" transform="translate(364,321)"/>
<path d="M0,0 L13,0 L13,5 L0,5 Z " fill="#BABAB7" transform="translate(268,189)"/>
</svg>
